<svg width="18" height="19" viewBox="0 0 18 19" fill="none" xmlns="http://www.w3.org/2000/svg">
<path fill-rule="evenodd" clip-rule="evenodd" d="M9.16625 1.63305C8.96197 1.46281 8.66525 1.46281 8.46097 1.63305L4.42773 4.99407H6.14864L8.81361 2.77326L11.4786 4.99407H13.1995L9.16625 1.63305Z" fill="#2D2D2D"/>
<path opacity="0.4" d="M1.46875 7.19753C1.46875 5.98063 2.45524 4.99414 3.67214 4.99414H13.9546C15.1715 4.99414 16.158 5.98063 16.158 7.19753V14.5422C16.158 15.7591 15.1715 16.7456 13.9546 16.7456H3.67214C2.45524 16.7456 1.46875 15.7591 1.46875 14.5422V7.19753Z" fill="#2D2D2D"/>
<path fill-rule="evenodd" clip-rule="evenodd" d="M4.59082 7.93195C4.59082 7.62773 4.83744 7.3811 5.14167 7.3811H12.4863C12.7905 7.3811 13.0371 7.62773 13.0371 7.93195C13.0371 8.23618 12.7905 8.4828 12.4863 8.4828H5.14167C4.83744 8.4828 4.59082 8.23618 4.59082 7.93195Z" fill="#2D2D2D"/>
<path fill-rule="evenodd" clip-rule="evenodd" d="M4.59082 10.8699C4.59082 10.5657 4.83744 10.3191 5.14167 10.3191H12.4863C12.7905 10.3191 13.0371 10.5657 13.0371 10.8699C13.0371 11.1742 12.7905 11.4208 12.4863 11.4208H5.14167C4.83744 11.4208 4.59082 11.1742 4.59082 10.8699Z" fill="#2D2D2D"/>
<path fill-rule="evenodd" clip-rule="evenodd" d="M4.59082 13.8077C4.59082 13.5035 4.83744 13.2568 5.14167 13.2568H8.81398C9.11821 13.2568 9.36483 13.5035 9.36483 13.8077C9.36483 14.1119 9.11821 14.3585 8.81398 14.3585H5.14167C4.83744 14.3585 4.59082 14.1119 4.59082 13.8077Z" fill="#2D2D2D"/>
</svg>
