<svg width="35" height="35" viewBox="0 0 24 25" fill="none" xmlns="http://www.w3.org/2000/svg">
<rect opacity="0.15" y="0.5" width="80" height="95" rx="8" fill="#256FEF"/>
<g id="Huge-icon/business/outline/briefcase 01">
<path id="Vector" d="M22 10.5V18.5C22 20.7091 20.2091 22.5 18 22.5H6C3.79086 22.5 2 20.7091 2 18.5V10.5M22 10.5C22 8.29086 20.2091 6.5 18 6.5H6C3.79086 6.5 2 8.29086 2 10.5M22 10.5C22 10.5 18.8374 13.2647 12 13.0811C5.16262 12.8975 2 10.5 2 10.5M8 6.5V5.5C8 3.84315 9.34315 2.5 11 2.5H13C14.6569 2.5 16 3.84315 16 5.5V6.5M8 11.1767V14.1767M16 11.1767V14.1767" stroke="#256FEF" stroke-width="1.5" stroke-linecap="round"/>
</g>
</svg>
