<svg width="170" height="137" viewBox="0 0 170 137" fill="none" xmlns="http://www.w3.org/2000/svg">
<g clip-path="url(#clip0_158_4101)">
<path d="M145.055 66.4286C141.965 72.144 137.392 76.7248 132.566 80.8432C124.311 87.9035 120.035 93.1146 115.929 103.327C104.245 132.492 69.022 143.629 40.574 131.064C6.74901 116.186 1.034 76.2625 23.344 48.946C46.501 20.579 87.4379 11.2914 122.11 19.4443C122.618 19.5283 122.999 19.7385 123.422 19.9066C130.492 20.9151 137.011 23.6888 142.261 30.0347C150.558 40.0787 151.151 55.0817 145.055 66.4286Z" fill="#C1CF65"/>
<path d="M155.427 63.824L155.215 64.3283L148.145 81.8108C147.51 82.8614 146.155 83.1557 145.097 82.5253L134.006 75.8012C133.752 75.6331 133.54 75.423 133.413 75.2128C132.778 74.3303 132.99 73.1116 133.836 72.3972L149.923 60.4199L154.538 61.5126L155.427 63.824Z" fill="#C1CF65" stroke="#2D2D2D" stroke-width="1.56684" stroke-miterlimit="10" stroke-linecap="round" stroke-linejoin="round"/>
<path d="M158.39 57.2675L154.495 54.8721L152.633 57.8978L156.527 60.2512L158.39 57.2675Z" fill="white" stroke="#2D2D2D" stroke-width="1.56684" stroke-miterlimit="10" stroke-linecap="round" stroke-linejoin="round"/>
<path d="M152.294 58.6123L153.183 57.3096" stroke="#2D2D2D" stroke-width="1.56684" stroke-miterlimit="10" stroke-linecap="round" stroke-linejoin="round"/>
<path d="M156.612 60.4617H156.527L152.59 58.0663H152.506C152.125 57.7721 151.532 57.9402 151.236 58.4025L150.177 60.1676C149.881 60.5458 150.05 61.1342 150.516 61.4283L154.622 63.8658C155.003 64.1599 155.596 63.9919 155.892 63.5296L156.951 61.7645C157.162 61.3442 157.035 60.7558 156.612 60.4617Z" fill="white" stroke="#2D2D2D" stroke-width="1.56684" stroke-miterlimit="10" stroke-linecap="round" stroke-linejoin="round"/>
<path fill-rule="evenodd" clip-rule="evenodd" d="M160.338 50.459L155.85 47.7694L155.469 47.4753L151.871 45.2479C151.066 44.7856 150.008 44.9957 149.415 45.8362L148.653 47.097C148.188 47.8955 148.399 48.9462 149.204 49.4084L150.262 50.0388C150.093 50.291 149.966 50.417 149.839 50.5851C148.738 52.056 147.426 53.3588 147.002 53.5269C146.875 53.611 146.791 53.5689 146.706 53.6529C145.986 54.0312 145.69 54.8717 146.071 55.5861C146.198 55.7963 146.325 56.0063 146.579 56.1745C146.833 56.3426 147.172 56.4267 147.468 56.3006C148.611 56.1324 149.712 55.7542 150.685 55.1658C151.447 54.7036 152.209 54.2413 152.802 53.6529L160.507 58.3177C161.142 58.654 161.946 58.4859 162.243 57.8975C163.767 55.376 162.92 51.9719 160.338 50.459Z" fill="white" stroke="#2D2D2D" stroke-width="1.56684" stroke-miterlimit="10" stroke-linecap="round" stroke-linejoin="round"/>
<path d="M143.997 53.0233L141.414 43.3154L131.423 45.2065L143.997 53.0233Z" fill="#C1CF65" stroke="#2D2D2D" stroke-width="1.56684" stroke-miterlimit="10" stroke-linecap="round" stroke-linejoin="round"/>
<path d="M141.414 43.3152L130.957 37.5156L121.348 39.4908L131.423 45.2063L141.414 43.3152Z" fill="#F2FFCD"/>
<path d="M141.414 43.3152L130.957 37.5156L121.348 39.4908L131.423 45.2063L141.414 43.3152Z" fill="#C1CF65" stroke="#2D2D2D" stroke-width="1.56684" stroke-miterlimit="10" stroke-linecap="round" stroke-linejoin="round"/>
<path d="M141.753 43.2726L144.25 39.9526L133.879 34.3633L131.296 37.5151L141.753 43.2726Z" fill="white" stroke="#2D2D2D" stroke-width="1.56684" stroke-miterlimit="10" stroke-linecap="round" stroke-linejoin="round"/>
<path d="M126.513 52.9387L131.423 45.2061" stroke="#2D2D2D" stroke-width="0.522229" stroke-miterlimit="10"/>
<path d="M126.512 52.9387L131.423 45.2061L143.997 53.0227L139.34 60.4192L126.639 80.2131L114.193 72.3543L126.512 52.9387Z" fill="white" stroke="#2D2D2D" stroke-width="1.56684" stroke-miterlimit="10" stroke-linecap="round" stroke-linejoin="round"/>
<path d="M118.173 69.2443L127.528 54.5354L120.84 50.585" stroke="white" stroke-width="0.629479" stroke-miterlimit="10" stroke-linecap="round" stroke-linejoin="round"/>
<path d="M107.462 61.3023L116.479 47.0558L121.348 39.4912L131.423 45.2067L126.513 52.9393L116.945 68.1105L114.193 72.355L104.414 66.0091L107.462 61.3023Z" fill="white" stroke="#2D2D2D" stroke-width="1.56684" stroke-miterlimit="10" stroke-linecap="round" stroke-linejoin="round"/>
<path d="M106.276 80.8018C106.996 84.8782 110.806 87.6098 114.955 86.9795C119.061 86.265 121.813 82.4828 121.178 78.3643L115.336 41.8023C114.616 37.7258 110.806 34.9942 106.657 35.6246C102.551 36.339 99.7992 40.1213 100.434 44.2398L106.276 80.8018Z" fill="white" stroke="#2D2D2D" stroke-width="1.56684" stroke-miterlimit="10" stroke-linecap="round" stroke-linejoin="round"/>
<path d="M106.785 44.8281C109.028 47.6018 112.627 49.0307 116.395 48.4004L106.785 44.8281Z" fill="white"/>
<path d="M106.785 44.8281C109.028 47.6018 112.627 49.0307 116.395 48.4004" stroke="#2D2D2D" stroke-width="1.56684" stroke-miterlimit="10" stroke-linecap="round" stroke-linejoin="round"/>
<path d="M108.14 53.5693C110.383 56.343 113.982 57.7718 117.75 57.1415L108.14 53.5693Z" fill="white"/>
<path d="M108.14 53.5693C110.383 56.343 113.982 57.7718 117.75 57.1415" stroke="#2D2D2D" stroke-width="1.56684" stroke-miterlimit="10" stroke-linecap="round" stroke-linejoin="round"/>
<path d="M81.0453 117.532L125.75 132.788L139.551 66.2614L98.3177 60.4619L81.0453 117.532Z" fill="white"/>
<path d="M81.0453 117.532L125.75 132.788L139.551 66.2614L98.3177 60.4619L81.0453 117.532Z" stroke="#2D2D2D" stroke-width="1.56684" stroke-miterlimit="10" stroke-linecap="round" stroke-linejoin="round"/>
<path d="M125.75 132.786L145.393 131.399L153.86 74.2875L139.551 66.2607L125.75 132.786Z" fill="white"/>
<path d="M125.75 132.786L145.393 131.399L153.86 74.2875L139.551 66.2607L125.75 132.786Z" stroke="#2D2D2D" stroke-width="1.56684" stroke-miterlimit="10" stroke-linecap="round" stroke-linejoin="round"/>
<path d="M86.8453 91.2236L88.7504 91.7279L93.8305 93.1147L97.6829 94.1233C98.5719 92.8625 100.35 91.6438 103.017 92.4423C104.88 92.9466 106.107 94.5856 106.15 96.3506L112.754 98.1157L108.605 113.497L91.6291 109L84.6863 107.151H84.6439C83.5856 106.857 82.9929 105.765 83.2892 104.713C83.5856 103.663 84.6439 103.033 85.66 103.285L83.8396 102.822C82.9506 102.57 82.2732 101.772 82.2732 100.848C82.3155 99.5445 83.5856 98.662 84.7709 98.9562C83.7126 98.662 83.0776 97.5693 83.3316 96.5187C83.6279 95.4681 84.7286 94.8377 85.787 95.0898C84.7286 94.7957 84.0936 93.703 84.3476 92.6524C84.6863 91.5597 85.787 90.9293 86.8453 91.2236Z" fill="white" stroke="#2D2D2D" stroke-width="1.56684" stroke-miterlimit="10" stroke-linecap="round" stroke-linejoin="round"/>
<path d="M84.8556 103.033L90.5708 104.672" stroke="#2D2D2D" stroke-width="1.56684" stroke-miterlimit="10" stroke-linecap="round" stroke-linejoin="round"/>
<path d="M84.5593 98.8311L91.5444 100.806" stroke="#2D2D2D" stroke-width="1.56684" stroke-miterlimit="10" stroke-linecap="round" stroke-linejoin="round"/>
<path d="M85.829 95.0898L92.6025 96.9809" stroke="#2D2D2D" stroke-width="1.56684" stroke-miterlimit="10" stroke-linecap="round" stroke-linejoin="round"/>
<path d="M109.833 96.6448C110.637 96.6448 111.441 96.7288 112.246 96.939C130.661 101.856 138.62 101.73 141.668 101.226C141.668 101.226 151.151 100.511 152.252 85.1719C152.506 85.5081 155.469 89.1643 157.374 92.9886C161.565 101.604 159.787 107.571 157.543 111.017C154.241 116.103 148.103 118.792 139.34 118.961C138.959 118.961 138.62 118.961 138.239 118.961C130.576 118.961 120.585 117.279 107.716 113.875C107.081 113.707 106.488 113.455 105.938 113.16C105.641 109.252 106.234 103.369 109.833 96.6448Z" fill="#C1CF65" stroke="#2D2D2D" stroke-width="1.56684" stroke-miterlimit="10" stroke-linecap="round" stroke-linejoin="round"/>
<path d="M95.5663 93.5352L100.773 95.1321" stroke="#2D2D2D" stroke-width="1.56684" stroke-miterlimit="10" stroke-linecap="round" stroke-linejoin="round"/>
<path d="M111.569 111.9C110.283 111.9 109.24 110.866 109.24 109.589C109.24 108.313 110.283 107.277 111.569 107.277C112.854 107.277 113.897 108.313 113.897 109.589C113.897 110.866 112.854 111.9 111.569 111.9Z" fill="white"/>
<path d="M111.569 108.16C110.764 108.16 110.087 108.832 110.087 109.63C110.087 110.429 110.764 111.102 111.569 111.102C112.373 111.102 113.05 110.429 113.05 109.63C113.05 108.791 112.373 108.16 111.569 108.16ZM111.569 106.479C113.304 106.479 114.744 107.865 114.744 109.63C114.744 111.354 113.347 112.782 111.569 112.782C109.791 112.782 108.394 111.395 108.394 109.63C108.394 107.865 109.833 106.479 111.569 106.479Z" fill="#2D2D2D"/>
<path d="M55.5428 83.199C50.6908 81.3057 47.5398 77.7921 48.5068 75.3511C49.4728 72.9102 54.1908 72.4661 59.0428 74.3595C63.8958 76.2528 67.0458 79.7664 66.0798 82.2074C65.1128 84.6484 60.3958 85.0923 55.5428 83.199Z" fill="white" stroke="#2D2D2D" stroke-width="1.56684" stroke-miterlimit="10" stroke-linecap="round" stroke-linejoin="round"/>
<path d="M16.285 85.3416L49.566 74.2803L53.894 87.1128L20.6131 98.1742L16.285 85.3416Z" fill="#F2FFCD" stroke="#2D2D2D" stroke-width="1.56684" stroke-miterlimit="10" stroke-linecap="round" stroke-linejoin="round"/>
<path d="M11.0539 100.579C8.95487 98.9864 9.82087 94.3619 12.9879 90.2502C16.1549 86.1385 20.4239 84.0968 22.5229 85.6898C24.6209 87.2829 23.7549 91.9075 20.5889 96.0192C17.4219 100.131 13.1529 102.173 11.0539 100.579Z" fill="white" stroke="#2D2D2D" stroke-width="1.56684" stroke-miterlimit="10" stroke-linecap="round" stroke-linejoin="round"/>
<path d="M45.7291 68.77C43.9361 68.1663 43.4561 64.8261 44.6571 61.3093C45.8581 57.7925 48.2861 55.4309 50.0791 56.0346C51.8731 56.6384 52.3531 59.9786 51.1521 63.4953C49.9501 67.0121 47.5231 69.3736 45.7291 68.77Z" fill="white" stroke="#2D2D2D" stroke-width="1.56684" stroke-miterlimit="10" stroke-linecap="round" stroke-linejoin="round"/>
<path d="M38.561 60.8589C37.317 57.357 37.755 54.0111 39.541 53.3856C41.327 52.7602 43.784 55.092 45.028 58.5939C46.273 62.0959 45.834 65.4418 44.048 66.0672C42.262 66.6927 39.806 64.3609 38.561 60.8589Z" fill="white" stroke="#2D2D2D" stroke-width="1.56684" stroke-miterlimit="10" stroke-linecap="round" stroke-linejoin="round"/>
<path d="M49.9718 73.7414C48.6598 73.4473 47.8548 72.1444 48.1518 70.8417C48.2358 70.4214 48.4478 70.0432 48.7438 69.7491C47.6008 69.3287 46.9238 68.11 47.1778 66.8914C47.4738 65.5886 48.7868 64.79 50.0988 65.0843C50.2258 65.1262 50.3528 65.1682 50.4378 65.2103C50.4378 65.0002 50.4378 64.79 50.4798 64.5379C50.7758 63.2352 52.0888 62.4366 53.4008 62.7309C54.5438 62.983 55.3058 64.0336 55.3058 65.1263C55.6868 65.0422 56.0678 65.0002 56.4908 65.1263C57.8038 65.4205 58.6078 66.7232 58.3118 68.026C58.0998 68.9085 57.4228 69.5389 56.6178 69.791C57.2528 70.3794 57.5498 71.2619 57.3378 72.1025C57.0418 73.4053 55.7288 74.2037 54.4168 73.9096C53.6128 73.6994 52.9778 73.1531 52.6808 72.4387C52.2158 73.4053 51.0728 73.9935 49.9718 73.7414Z" fill="#C1CF65" stroke="#2D2D2D" stroke-width="1.56684" stroke-miterlimit="10" stroke-linecap="round" stroke-linejoin="round"/>
<path d="M17.205 88.8706C14.665 88.2822 13.099 85.7606 13.691 83.2392C13.903 82.3986 14.284 81.6842 14.835 81.1379C12.633 80.3394 11.278 77.986 11.871 75.6746C12.464 73.1531 15.004 71.5982 17.544 72.1865C17.798 72.2285 18.01 72.3126 18.221 72.3966C18.221 71.9764 18.221 71.5562 18.348 71.1359C18.941 68.6144 21.481 67.0594 24.021 67.6478C26.222 68.1521 27.704 70.1273 27.662 72.2705C28.381 72.1024 29.144 72.0605 29.906 72.2285C32.446 72.8169 34.012 75.3384 33.419 77.8599C33.038 79.541 31.726 80.8017 30.16 81.264C31.345 82.3567 31.938 84.0797 31.514 85.7606C30.922 88.2822 28.382 89.8371 25.841 89.2488C24.275 88.8706 23.047 87.7779 22.539 86.3911C21.566 88.3242 19.407 89.4168 17.205 88.8706Z" fill="#C1CF65" stroke="#2D2D2D" stroke-width="1.56684" stroke-miterlimit="10" stroke-linecap="round" stroke-linejoin="round"/>
<path d="M49.0409 75.9265C48.3629 78.448 45.7389 79.961 43.1979 79.3305C42.3519 79.1204 41.6319 78.7001 41.0819 78.1118C40.1929 80.3392 37.7799 81.5999 35.4089 80.9695C32.8689 80.2971 31.3449 77.6915 31.9799 75.17C32.0219 74.9178 32.1069 74.7078 32.2339 74.4976C31.8109 74.4976 31.3869 74.4556 30.9219 74.3296C28.3809 73.6571 26.8569 71.0516 27.4919 68.53C28.0849 66.3447 30.1169 64.9159 32.3189 64.9999C32.1489 64.2855 32.1489 63.487 32.3609 62.7306C33.0379 60.209 35.6629 58.6961 38.2029 59.3265C39.9389 59.7888 41.1659 61.0916 41.5899 62.6886C42.7329 61.5118 44.5109 60.9655 46.2039 61.4277C48.7439 62.1002 50.2679 64.7057 49.6329 67.2273C49.2099 68.7822 48.0669 70.0009 46.6279 70.5052C48.5749 71.5139 49.6329 73.7412 49.0409 75.9265Z" fill="#C1CF65" stroke="#2D2D2D" stroke-width="1.56684" stroke-miterlimit="10" stroke-linecap="round" stroke-linejoin="round"/>
<path d="M33.2501 131.399L68.7261 119.633L60.2171 85.2979L19.2801 98.914L33.2501 131.399Z" fill="white" stroke="#2D2D2D" stroke-width="1.56684" stroke-miterlimit="10" stroke-linecap="round" stroke-linejoin="round"/>
<path d="M17.967 103.117L63.773 87.9042C64.45 87.6521 64.831 86.9376 64.62 86.2233L63.18 81.9367C62.926 81.2642 62.207 80.886 61.487 81.0962L15.681 96.3093C15.004 96.5615 14.623 97.2759 14.835 97.9904L16.274 102.277C16.528 102.949 17.29 103.327 17.967 103.117Z" fill="white" stroke="#2D2D2D" stroke-width="1.56684" stroke-miterlimit="10" stroke-linecap="round" stroke-linejoin="round"/>
<path d="M48.9511 83.0855C47.4461 81.9436 48.0692 78.6264 50.3412 75.6764C52.6132 72.7263 55.6751 71.2605 57.1791 72.4024C58.6841 73.5443 58.0612 76.8615 55.7892 79.8116C53.5172 82.7617 50.4551 84.2274 48.9511 83.0855Z" fill="white" stroke="#2D2D2D" stroke-width="1.56684" stroke-miterlimit="10" stroke-linecap="round" stroke-linejoin="round"/>
<path d="M44.4522 86.1316C39.5992 84.2383 36.4492 80.7247 37.4152 78.2837C38.3822 75.8428 43.0992 75.3987 47.9522 77.2921C52.8042 79.1854 55.9552 82.6991 54.9882 85.14C54.0222 87.581 49.3042 88.0249 44.4522 86.1316Z" fill="white" stroke="#2D2D2D" stroke-width="1.56684" stroke-miterlimit="10" stroke-linecap="round" stroke-linejoin="round"/>
<path d="M22.854 91.1664C20.755 89.5734 21.621 84.9488 24.788 80.8371C27.955 76.7255 32.223 74.6837 34.322 76.2768C36.421 77.8698 35.555 82.4944 32.388 86.606C29.221 90.7177 24.953 92.7595 22.854 91.1664Z" fill="white" stroke="#2D2D2D" stroke-width="1.56684" stroke-miterlimit="10" stroke-linecap="round" stroke-linejoin="round"/>
<path d="M37.991 71.7657C36.238 71.7657 34.816 70.3545 34.816 68.6138C34.816 66.873 36.238 65.4619 37.991 65.4619C39.745 65.4619 41.166 66.873 41.166 68.6138C41.166 70.3545 39.745 71.7657 37.991 71.7657Z" fill="white" stroke="#2D2D2D" stroke-width="1.56684" stroke-miterlimit="10" stroke-linecap="round" stroke-linejoin="round"/>
<path d="M20.931 80.3809C19.177 80.3809 17.756 78.9698 17.756 77.2291C17.756 75.4883 19.177 74.0771 20.931 74.0771C22.684 74.0771 24.106 75.4883 24.106 77.2291C24.106 78.9698 22.684 80.3809 20.931 80.3809Z" fill="white" stroke="#2D2D2D" stroke-width="1.56684" stroke-miterlimit="10" stroke-linecap="round" stroke-linejoin="round"/>
</g>
<defs>
<clipPath id="clip0_158_4101">
<rect width="170" height="136" fill="white" transform="matrix(-1 0 0 1 170 0.619141)"/>
</clipPath>
</defs>
</svg>
