<svg width="26" height="26" viewBox="0 0 26 26" fill="none" xmlns="http://www.w3.org/2000/svg">
<g id="cart">
<path id="Subtract" fill-rule="evenodd" clip-rule="evenodd" d="M1.08772 0.0361328C0.56951 0.0361328 0.149414 0.456229 0.149414 0.974443C0.149414 1.49266 0.56951 1.91275 1.08772 1.91275H3.58988C4.45358 1.91275 5.15374 2.61291 5.15374 3.4766V4.72768C5.15374 4.73434 5.1538 4.74099 5.15394 4.74761V3.47649H7.03036C7.03029 1.57642 5.48997 0.0361328 3.58988 0.0361328H1.08772Z" fill="white"/>
<path id="Rectangle 1057" opacity="0.4" d="M5.1543 3.47656H20.1673C22.9311 3.47656 25.1716 5.71707 25.1716 8.48088V14.7363C25.1716 17.5001 22.9311 19.7406 20.1673 19.7406H10.1586C7.39481 19.7406 5.1543 17.5001 5.1543 14.7363V3.47656Z" fill="white"/>
<circle id="Ellipse 651" cx="9.53287" cy="24.1193" r="1.87662" fill="white"/>
<circle id="Ellipse 652" cx="20.7926" cy="24.1193" r="1.87662" fill="white"/>
<path id="Vector 1781 (Stroke)" fill-rule="evenodd" clip-rule="evenodd" d="M19.733 13.0245C19.9875 13.4759 19.8279 14.0482 19.3765 14.3027C17.8562 15.1598 16.5468 15.6721 15.166 15.6747C13.7835 15.6774 12.4715 15.1692 10.9452 14.3009C10.4948 14.0447 10.3374 13.4718 10.5936 13.0214C10.8498 12.571 11.4227 12.4135 11.8731 12.6698C13.2946 13.4784 14.2643 13.7998 15.1624 13.7981C16.0621 13.7964 17.032 13.4702 18.4548 12.668C18.9062 12.4135 19.4785 12.5731 19.733 13.0245Z" fill="white"/>
</g>
</svg>
