<svg width="20" height="22" viewBox="0 0 20 22" fill="none" xmlns="http://www.w3.org/2000/svg">
<g id="cart">
<path id="Subtract" fill-rule="evenodd" clip-rule="evenodd" d="M0.749023 0.516602C0.33481 0.516602 -0.000976562 0.852388 -0.000976562 1.2666C-0.000976562 1.68081 0.33481 2.0166 0.749023 2.0166H2.74902C3.43938 2.0166 3.99902 2.57625 3.99902 3.2666H5.49902C5.49902 1.74782 4.26781 0.516602 2.74902 0.516602H0.749023Z" fill="#2D2D2D" fill-opacity="0.4"/>
<path id="Rectangle 1057" opacity="0.4" d="M3.99902 3.2666H15.999C18.2082 3.2666 19.999 5.05746 19.999 7.2666V12.2666C19.999 14.4757 18.2082 16.2666 15.999 16.2666H7.99902C5.78988 16.2666 3.99902 14.4757 3.99902 12.2666V3.2666Z" fill="#2D2D2D" fill-opacity="0.4"/>
<ellipse id="Ellipse 651" cx="7.49902" cy="19.7664" rx="1.5" ry="1.5" fill="#2D2D2D" fill-opacity="0.4"/>
<circle id="Ellipse 652" cx="16.499" cy="19.7664" r="1.5" fill="#2D2D2D" fill-opacity="0.4"/>
<path id="Vector 1781 (Stroke)" fill-rule="evenodd" clip-rule="evenodd" d="M15.6525 10.8986C15.8559 11.2595 15.7283 11.7169 15.3675 11.9203C14.1523 12.6054 13.1057 13.0148 12.002 13.017C10.897 13.0191 9.84825 12.6129 8.6283 11.9189C8.26827 11.7141 8.14244 11.2562 8.34726 10.8961C8.55207 10.5361 9.00997 10.4103 9.37 10.6151C10.5062 11.2614 11.2813 11.5184 11.9991 11.517C12.7183 11.5156 13.4936 11.2548 14.6308 10.6137C14.9916 10.4102 15.449 10.5378 15.6525 10.8986Z" fill="#2D2D2D" fill-opacity="0.4"/>
</g>
</svg>
