<svg width="35" height="35" viewBox="0 0 42 43" fill="none" xmlns="http://www.w3.org/2000/svg">
<g id="Group 427320575">
<rect id="Rectangle 1187" opacity="0.15" y="0.5" width="42" height="42" rx="8" fill="#FE0000"/>
<g id="Icon">
<path d="M22.2065 16.4867C22.2065 17.153 21.6663 17.6932 21 17.6932C20.3337 17.6932 19.7936 17.153 19.7936 16.4867C19.7936 15.8204 20.3337 15.2803 21 15.2803C21.6663 15.2803 22.2065 15.8204 22.2065 16.4867Z" fill="#5C7E64"/>
<path d="M21 19.8045C21.4998 19.8045 21.9049 20.2096 21.9049 20.7093V26.7415C21.9049 27.2413 21.4998 27.6464 21 27.6464C20.5003 27.6464 20.0952 27.2413 20.0952 26.7415V20.7093C20.0952 20.2096 20.5003 19.8045 21 19.8045Z" fill="#5C7E64"/>
<path fill-rule="evenodd" clip-rule="evenodd" d="M23.7391 10.4456C22.4217 8.51813 19.5783 8.51812 18.2609 10.4456L17.7398 11.208C14.4751 15.9846 11.6702 21.0597 9.3626 26.3652L9.25376 26.6155C8.44055 28.4852 9.66915 30.6082 11.6954 30.8346C17.8792 31.5258 24.1208 31.5258 30.3046 30.8346C32.3309 30.6082 33.5595 28.4852 32.7462 26.6155L32.6374 26.3652C30.3298 21.0597 27.5249 15.9846 24.2602 11.208L23.7391 10.4456ZM19.755 11.4668C20.3538 10.5906 21.6462 10.5906 22.245 11.4668L22.7661 12.2292C25.9663 16.9114 28.7159 21.8862 30.9779 27.087L31.0867 27.3372C31.4142 28.0901 30.9195 28.945 30.1036 29.0362C24.0534 29.7124 17.9466 29.7124 11.8964 29.0362C11.0805 28.945 10.5858 28.0901 10.9133 27.3372L11.0221 27.087C13.2841 21.8862 16.0337 16.9114 19.2339 12.2292L19.755 11.4668Z" fill="#5C7E64"/>
</g>
</g>
</svg>
