<svg width="170" height="137" viewBox="0 0 170 137" fill="none" xmlns="http://www.w3.org/2000/svg">
<g clip-path="url(#clip0_158_4028)">
<path d="M1.81656 91.8024C3.82198 85.173 7.61139 79.4005 11.7566 74.0338C18.8433 64.8789 22.1869 58.5201 24.3258 46.93C30.4329 13.8281 64.5317 -5.15808 96.4907 2.19288C134.467 10.8967 148.552 51.7554 131.124 85.1279C113.027 119.763 72.6438 137.983 35.1573 136.539C34.6226 136.539 34.1768 136.404 33.6866 136.314C26.1977 136.72 18.8877 135.141 12.1579 129.504C1.54871 120.665 -2.15076 104.971 1.81656 91.8024Z" fill="#C1CF65"/>
<path d="M28.0708 67.8556L62.9712 74.8909V20.5479L27.8474 30.6498C25.7975 31.0557 24.3258 32.8596 24.3258 34.9792V63.481C24.3258 65.6908 25.931 67.5399 28.0708 67.8556Z" fill="white" stroke="#2D2D2D" stroke-width="1.66552" stroke-miterlimit="10" stroke-linecap="round" stroke-linejoin="round"/>
<path d="M52.3628 37.459L34.9348 42.51V53.4237L52.3628 56.9413V37.459Z" fill="white" stroke="#2D2D2D" stroke-width="1.66552" stroke-miterlimit="10" stroke-linecap="round" stroke-linejoin="round"/>
<path d="M97.8721 67.8556L62.971 74.8909V20.5479L98.095 26.9067C100.145 27.3126 101.616 29.1165 101.616 31.2361V63.5262C101.661 65.6909 100.056 67.5399 97.8721 67.8556Z" fill="white" stroke="#2D2D2D" stroke-width="1.66552" stroke-miterlimit="10" stroke-linecap="round" stroke-linejoin="round"/>
<path d="M89.5815 69.2989L76.7889 71.8695V53.9656C76.7889 52.8382 77.6804 51.8911 78.8393 51.846L89.7152 51.5303C90.473 51.6656 91.0078 52.3421 91.0078 53.1088V67.6754C90.9632 68.5322 90.3839 69.2087 89.5815 69.2989Z" fill="white" stroke="#2D2D2D" stroke-width="1.66552" stroke-miterlimit="10" stroke-linecap="round" stroke-linejoin="round"/>
<path d="M99.1651 25.8695L113.473 41.6087L103.622 41.2028L90.1166 24.5166L99.1651 25.8695Z" fill="#C1CF65" stroke="#2D2D2D" stroke-width="1.66552" stroke-miterlimit="10" stroke-linecap="round" stroke-linejoin="round"/>
<path d="M90.1164 24.5168L103.622 41.2031L93.6822 40.7972L81.0679 23.209L90.1164 24.5168Z" fill="white" stroke="#2D2D2D" stroke-width="1.66552" stroke-miterlimit="10" stroke-linecap="round" stroke-linejoin="round"/>
<path d="M62.9709 20.5479L72.0195 21.8558L83.876 40.4361L73.7578 39.9851L62.9709 20.5479Z" fill="white" stroke="#2D2D2D" stroke-width="1.66552" stroke-miterlimit="10" stroke-linecap="round" stroke-linejoin="round"/>
<path d="M81.0678 23.2084L93.6821 40.7966L83.876 40.4358L72.0195 21.8555L81.0678 23.2084Z" fill="#C1CF65" stroke="#2D2D2D" stroke-width="1.66552" stroke-miterlimit="10" stroke-linecap="round" stroke-linejoin="round"/>
<path d="M67.2952 4.49279L95.9557 10.9417C97.7833 11.2123 99.165 12.7908 99.165 14.6849V25.9143L63.0155 20.5025V8.23592C62.9711 5.93592 65.0219 4.1771 67.2952 4.49279Z" fill="white" stroke="#2D2D2D" stroke-width="1.66552" stroke-miterlimit="10" stroke-linecap="round" stroke-linejoin="round"/>
<path d="M34.2216 82.2873C35.4699 82.2873 36.4948 81.25 36.4948 79.9873V73.0873C36.4948 72.952 36.5838 72.8618 36.7172 72.8618C36.8072 72.8618 36.8961 72.8618 36.9851 72.8618L44.8298 71.8697C44.9197 71.9148 45.0087 72.005 45.0087 72.0951V79.0853C45.0087 80.3481 46.0336 81.3853 47.2819 81.3853C48.5292 81.3853 49.5552 80.3481 49.5552 79.0853V72.0951C49.5552 69.4344 47.4153 67.2246 44.7408 67.2246C44.6519 67.2246 44.5629 67.2246 44.474 67.2246L36.5393 68.2618C33.9537 68.352 31.9038 70.5167 31.9038 73.1324V80.0324C31.9038 81.25 32.9288 82.2873 34.2216 82.2873Z" fill="#C1CF65" stroke="#2D2D2D" stroke-width="1.66552" stroke-miterlimit="10" stroke-linecap="round" stroke-linejoin="round"/>
<path d="M21.3842 81.0689C22.6325 81.0689 23.6574 80.0316 23.6574 78.7689V71.8689C23.6574 71.7336 23.7464 71.6434 23.8798 71.6434C23.9698 71.6434 24.0587 71.6434 24.1477 71.6434L31.9924 70.6513C32.0813 70.6964 32.1713 70.7865 32.1713 70.8767V77.7767C32.1713 79.0395 33.1962 80.0767 34.4445 80.0767C35.6919 80.0767 36.7178 79.0395 36.7178 77.7767V70.7866C36.7178 68.1258 34.578 65.916 31.9034 65.916C31.8145 65.916 31.7255 65.916 31.6356 65.916L23.7019 66.9532C21.1163 67.0434 19.0664 69.2081 19.0664 71.8238V78.7238C19.1109 80.0316 20.1359 81.0689 21.3842 81.0689Z" fill="#C1CF65" stroke="#2D2D2D" stroke-width="1.66552" stroke-miterlimit="10" stroke-linecap="round" stroke-linejoin="round"/>
<path d="M7.92284 127.565L45.2754 131.173L43.4924 76.2891L10.5974 79.4459L7.92284 127.565Z" fill="white" stroke="#2D2D2D" stroke-width="1.66552" stroke-miterlimit="10" stroke-linecap="round" stroke-linejoin="round"/>
<path d="M45.2752 131.173L60.1631 126.392L56.0179 79.8969L43.4922 76.2891L45.2752 131.173Z" fill="white" stroke="#2D2D2D" stroke-width="1.66552" stroke-miterlimit="10" stroke-linecap="round" stroke-linejoin="round"/>
<path d="M107.456 129.686C106.876 133.158 101.394 135.142 95.1982 134.15C89.0024 133.113 84.4114 129.46 84.9462 125.988L86.7292 114.893L109.239 118.591L107.456 129.686Z" fill="white" stroke="#2D2D2D" stroke-width="1.66552" stroke-miterlimit="10" stroke-linecap="round" stroke-linejoin="round"/>
<path d="M99.4772 107.541C116.192 110.292 130.812 106.594 132.997 99.2434C132.952 99.8748 132.863 100.551 132.729 101.183C129.921 118.726 113.563 130.677 96.1788 127.79C78.8397 124.949 67.0275 108.398 69.8809 90.8101C69.9699 90.1787 70.1033 89.5473 70.2367 88.916C70.0144 96.5826 82.7176 104.79 99.4772 107.541Z" fill="white" stroke="#2D2D2D" stroke-width="1.66552" stroke-miterlimit="10" stroke-linecap="round" stroke-linejoin="round"/>
<path d="M70.3254 88.0594C70.4598 87.2928 70.7267 86.5261 71.0835 85.8496C70.7712 86.8418 70.4598 87.879 70.2365 88.9614C70.2809 88.6457 70.2809 88.33 70.3254 88.0594Z" fill="white" stroke="#2D2D2D" stroke-width="1.66552" stroke-miterlimit="10" stroke-linecap="round" stroke-linejoin="round"/>
<path d="M133.175 98.3871C133.13 98.6576 133.041 98.9733 132.952 99.2439C133.041 98.1616 133.13 97.0792 133.13 96.042C133.308 96.8086 133.308 97.6204 133.175 98.3871Z" fill="white" stroke="#2D2D2D" stroke-width="1.66552" stroke-miterlimit="10" stroke-linecap="round" stroke-linejoin="round"/>
<path d="M99.4771 107.541C82.7621 104.79 70.0588 96.5825 70.2812 88.9159C70.5046 87.8786 70.8159 86.8414 71.1283 85.8041C74.6497 79.3551 88.423 76.2885 104.068 78.8591C119.714 81.4296 131.838 88.7806 133.175 95.9963C133.175 97.0786 133.13 98.1159 132.997 99.1982C130.812 106.594 116.192 110.292 99.4771 107.541Z" fill="white" stroke="#2D2D2D" stroke-width="1.66552" stroke-miterlimit="10" stroke-linecap="round" stroke-linejoin="round"/>
<path d="M99.4772 107.541C116.192 110.292 130.812 106.594 132.997 99.2434C132.952 99.8748 132.863 100.551 132.729 101.183C129.921 118.726 113.563 130.677 96.1788 127.79C78.8397 124.949 67.0275 108.398 69.8809 90.8101C69.9699 90.1787 70.1033 89.5473 70.2367 88.916C70.0144 96.5826 82.7176 104.79 99.4772 107.541Z" stroke="#2D2D2D" stroke-width="1.66552" stroke-miterlimit="10" stroke-linecap="round" stroke-linejoin="round"/>
<path d="M89.5818 76.2438C95.1535 73.0418 103.89 77.9575 109.105 87.2477C112.27 92.8849 110.353 100.01 104.781 103.212C99.2096 106.414 92.167 104.475 89.0023 98.8378C83.7872 89.5477 84.0101 79.4458 89.5818 76.2438Z" fill="white" stroke="#2D2D2D" stroke-width="1.66552" stroke-miterlimit="10" stroke-linecap="round" stroke-linejoin="round"/>
<path d="M99.2988 99.5146C96.0247 99.5146 93.3705 96.8292 93.3705 93.5166C93.3705 90.204 96.0247 87.5186 99.2988 87.5186C102.573 87.5186 105.227 90.204 105.227 93.5166C105.227 96.8292 102.573 99.5146 99.2988 99.5146Z" fill="#C1CF65" stroke="#2D2D2D" stroke-width="1.66552" stroke-miterlimit="10" stroke-linecap="round" stroke-linejoin="round"/>
<path d="M74.3823 78.318C79.954 75.116 88.6904 80.0317 93.9054 89.3219C96.9365 94.7336 95.2873 101.498 90.2504 104.881C90.0276 105.016 89.8047 105.151 89.6264 105.287C84.0547 108.489 77.0121 106.549 73.8474 100.912C73.3125 99.965 72.8668 99.063 72.4657 98.1159C68.6772 89.6826 69.3899 81.2042 74.3823 78.318Z" fill="white" stroke="#2D2D2D" stroke-width="1.66552" stroke-miterlimit="10" stroke-linecap="round" stroke-linejoin="round"/>
<path d="M84.0991 101.588C80.825 101.588 78.1708 98.9034 78.1708 95.5908C78.1708 92.2782 80.825 89.5928 84.0991 89.5928C87.3732 89.5928 90.0273 92.2782 90.0273 95.5908C90.0273 98.9034 87.3732 101.588 84.0991 101.588Z" fill="#C1CF65" stroke="#2D2D2D" stroke-width="1.66552" stroke-miterlimit="10" stroke-linecap="round" stroke-linejoin="round"/>
<path d="M132.996 99.2434C130.812 106.595 116.192 110.293 99.4768 107.542C82.7618 104.791 70.0586 96.5827 70.281 88.916" stroke="#2D2D2D" stroke-width="1.66552" stroke-miterlimit="10" stroke-linecap="round" stroke-linejoin="round"/>
<path d="M119.936 107.587C119.936 107.587 122.388 103.754 118.644 101.274C114.9 98.7929 110.398 95.5459 110.398 95.5459L114.9 98.7478" stroke="#2D2D2D" stroke-width="1.66552" stroke-miterlimit="10" stroke-linecap="round" stroke-linejoin="round"/>
<path d="M130.901 102.58C130.901 102.58 132.372 99.2887 128.004 96.8084C123.636 94.328 117.084 90.4946 117.084 90.4946C117.084 90.4946 112.894 87.9241 110.398 91.0358" stroke="#2D2D2D" stroke-width="1.66552" stroke-miterlimit="10" stroke-linecap="round" stroke-linejoin="round"/>
<path d="M127.469 96.1322C127.87 93.5616 124.75 93.0655 125.151 90.4949C125.552 87.9243 128.673 88.4655 129.118 85.8949C129.519 83.3244 126.399 82.8283 126.8 80.2577C127.202 77.6871 130.322 78.2283 130.768 75.6577C131.169 73.0871 128.049 72.5911 128.45 70.0205" stroke="#2D2D2D" stroke-width="1.66552" stroke-miterlimit="10" stroke-linecap="round" stroke-linejoin="round"/>
<path d="M116.638 88.9617C117.039 86.3911 120.159 86.9323 120.605 84.3617C121.006 81.7912 117.886 81.2951 118.287 78.7245C118.688 76.1539 121.808 76.6951 122.254 74.1245C122.655 71.5539 119.535 71.0579 119.936 68.4873" stroke="#2D2D2D" stroke-width="1.66552" stroke-miterlimit="10" stroke-linecap="round" stroke-linejoin="round"/>
<path d="M115.122 69.3887L163.172 78.9945C164.866 79.3553 166.515 78.2278 166.872 76.4691C167.229 74.7554 166.114 73.0867 164.376 72.7259C164.331 72.7259 164.242 72.6809 164.198 72.6809L115.657 66.0514C114.721 65.9161 113.874 66.5926 113.785 67.4945C113.651 68.3965 114.231 69.2535 115.122 69.3887Z" fill="white" stroke="#2D2D2D" stroke-width="1.66552" stroke-miterlimit="10" stroke-linecap="round" stroke-linejoin="round"/>
<path d="M116.861 63.0747L165.847 63.3002C167.585 63.3002 169.012 61.9022 169.012 60.1434C169.012 58.3845 167.63 56.9414 165.892 56.9414C165.847 56.9414 165.758 56.9414 165.713 56.9414L116.816 59.6924C115.88 59.7375 115.167 60.5492 115.211 61.4963C115.256 62.3532 116.014 63.0747 116.861 63.0747Z" fill="white" stroke="#2D2D2D" stroke-width="1.66552" stroke-miterlimit="10" stroke-linecap="round" stroke-linejoin="round"/>
<path d="M27.4907 24.5162L25.7077 17.8418" stroke="#2D2D2D" stroke-width="1.66552" stroke-miterlimit="10" stroke-linecap="round" stroke-linejoin="round"/>
<path d="M19.958 30.0183L10.9095 24.5615" stroke="#2D2D2D" stroke-width="1.66552" stroke-miterlimit="10" stroke-linecap="round" stroke-linejoin="round"/>
<path d="M18.3975 39.3086L11.89 41.6987" stroke="#2D2D2D" stroke-width="1.66552" stroke-miterlimit="10" stroke-linecap="round" stroke-linejoin="round"/>
<path d="M99.4768 107.542C116.192 110.293 130.812 106.595 132.996 99.2434C132.952 99.8748 132.862 100.551 132.729 101.183C129.921 118.726 113.562 130.677 96.1783 127.791C78.8393 124.949 67.0273 108.398 69.8797 90.8101C69.9687 90.1788 70.1031 89.5474 70.2365 88.916C70.0142 96.5827 82.7172 104.791 99.4768 107.542Z" fill="white" stroke="#2D2D2D" stroke-width="1.66552" stroke-miterlimit="10" stroke-linecap="round" stroke-linejoin="round"/>
<path d="M71.7967 106.549C71.5293 105.648 71.2173 104.746 70.9946 103.844C71.3064 103.844 71.6184 103.934 71.9304 104.159C80.6668 110.248 89.4032 114.577 98.0951 116.02C106.876 117.463 116.548 116.11 126.8 113.134C127.335 112.953 127.915 113.089 128.316 113.449V113.495C127.915 114.397 127.647 114.667 126.979 115.389C126.488 115.93 125.998 116.471 125.552 117.057C115.657 119.718 106.252 120.846 97.6047 119.402C89.2695 118.049 80.9342 114.171 72.599 108.669C72.3316 107.902 72.0195 107.226 71.7967 106.549Z" fill="#C1CF65"/>
<path d="M99.4768 107.542C116.192 110.293 130.812 106.595 132.996 99.2434C132.952 99.8748 132.862 100.551 132.729 101.183C129.921 118.726 113.562 130.677 96.1783 127.791C78.8393 124.949 67.0273 108.398 69.8797 90.8101C69.9687 90.1788 70.1031 89.5474 70.2365 88.916C70.0142 96.5827 82.7172 104.791 99.4768 107.542Z" stroke="#2D2D2D" stroke-width="1.66552" stroke-miterlimit="10" stroke-linecap="round" stroke-linejoin="round"/>
</g>
<defs>
<clipPath id="clip0_158_4028">
<rect width="170" height="136" fill="white" transform="matrix(-1 0 0 1 170 0.619141)"/>
</clipPath>
</defs>
</svg>
