<svg width="12" height="13" viewBox="0 0 12 13" fill="none" xmlns="http://www.w3.org/2000/svg">
<g id="Huge-icon/ecommerce/outline/tag 01" clip-path="url(#clip0_56_2606)">
<path id="Ellipse 676" d="M8.10319 5.68522C7.73241 6.05599 7.13127 6.05599 6.7605 5.68522C6.38973 5.31444 6.38973 4.7133 6.7605 4.34253C7.13127 3.97176 7.73241 3.97176 8.10319 4.34253C8.47396 4.7133 8.47396 5.31444 8.10319 5.68522Z" stroke="white" stroke-width="0.854479"/>
<path id="Rectangle 823" d="M4.86056 2.88552C5.25786 2.48823 5.80659 2.28205 6.36275 2.3211L8.24465 2.45322C9.18432 2.51919 9.9263 3.26116 9.99227 4.20083L10.1244 6.08274C10.1634 6.63889 9.95725 7.18763 9.55996 7.58492L6.44331 10.7016C5.69169 11.4532 4.48123 11.4614 3.73969 10.7198L1.72566 8.7058C0.984115 7.96425 0.992289 6.7538 1.74392 6.00217L4.86056 2.88552Z" stroke="white" stroke-width="0.854479" stroke-linejoin="round"/>
</g>
<defs>
<clipPath id="clip0_56_2606">
<rect width="11.3931" height="11.3931" fill="white" transform="translate(0.392578 0.660156)"/>
</clipPath>
</defs>
</svg>
