<svg width="185" height="185" viewBox="0 0 185 185" fill="none" xmlns="http://www.w3.org/2000/svg">
<g id="Huge-icon/ecommerce/bulk/cart-remove">
<g id="cart">
<path id="Subtract" fill-rule="evenodd" clip-rule="evenodd" d="M21.8429 10.1841C18.6688 10.1841 16.0957 12.7572 16.0957 15.9312C16.0957 19.1053 18.6688 21.6784 21.8429 21.6784H37.1686C42.4587 21.6784 46.7472 25.9669 46.7472 31.257V38.9198C46.7472 38.9419 46.7473 38.964 46.7475 38.9861V31.2566H58.2415C58.2413 19.6185 48.8067 10.1841 37.1686 10.1841H21.8429Z" fill="#F2FFCD"/>
<path id="Rectangle 1056" opacity="0.4" d="M46.748 31.2563H138.702C155.631 31.2563 169.354 44.9795 169.354 61.9078V100.222C169.354 117.15 155.631 130.874 138.702 130.874H77.3995C60.4712 130.874 46.748 117.15 46.748 100.222V31.2563Z" fill="#F2FFCD"/>
<circle id="Ellipse 651" cx="73.5675" cy="157.694" r="11.4943" fill="#F2FFCD"/>
<circle id="Ellipse 652" cx="142.533" cy="157.694" r="11.4943" fill="#F2FFCD"/>
<path id="Vector (Stroke)" fill-rule="evenodd" clip-rule="evenodd" d="M90.4401 63.4565C92.6845 61.2121 96.3234 61.2121 98.5678 63.4565L108.05 72.9388L117.532 63.4565C119.777 61.2121 123.416 61.2121 125.66 63.4565C127.905 65.7009 127.905 69.3398 125.66 71.5842L116.178 81.0665L125.66 90.5488C127.905 92.7932 127.905 96.4321 125.66 98.6765C123.416 100.921 119.777 100.921 117.532 98.6765L108.05 89.1942L98.5678 98.6765C96.3234 100.921 92.6845 100.921 90.4401 98.6765C88.1957 96.4321 88.1957 92.7932 90.4401 90.5488L99.9225 81.0665L90.4401 71.5842C88.1957 69.3398 88.1957 65.7009 90.4401 63.4565Z" fill="#F2FFCD"/>
</g>
</g>
</svg>
