<svg width="169" height="103" viewBox="0 0 169 103" fill="none" xmlns="http://www.w3.org/2000/svg">
<path d="M4.84187e-06 94.7065V80.9702H3.48888V82.4884C4.00214 81.8588 4.57587 81.3799 5.20554 81.0609C5.83936 80.7415 6.5382 80.582 7.30582 80.582C8.17285 80.582 8.91438 80.7461 9.52704 81.0692C10.1439 81.3927 10.6787 81.9018 11.1315 82.6003C11.6145 81.9275 12.1795 81.423 12.839 81.0866C13.4948 80.7502 14.228 80.582 15.0387 80.582C16.419 80.582 17.5143 80.9876 18.325 81.7937C19.1316 82.6048 19.5371 83.7047 19.5371 85.1061V94.7065H15.9099V85.8609C15.9099 85.1969 15.7289 84.6791 15.3709 84.3125C15.013 83.9462 14.5168 83.7648 13.8743 83.7648C13.1584 83.7648 12.5892 83.9976 12.1708 84.4678C11.7479 84.9338 11.5366 85.5722 11.5366 86.3783V94.7065H7.94834V85.887C7.94834 85.2139 7.77183 84.6923 7.42223 84.3212C7.073 83.9504 6.58545 83.7648 5.95162 83.7648C5.23577 83.7648 4.67073 84.0022 4.25234 84.4724C3.83395 84.9422 3.62721 85.5892 3.62721 86.4045V94.7066L4.84187e-06 94.7065Z" fill="#333333"/>
<path d="M22.2398 100.219V97.2472C22.3562 97.2646 22.4813 97.2774 22.6064 97.2861C22.7315 97.2948 22.8951 97.299 23.0977 97.299C23.8226 97.299 24.3658 97.1266 24.7282 96.7857C25.0903 96.4452 25.2717 95.9319 25.2717 95.2505C25.2717 95.1987 25.263 95.1382 25.2456 95.0607C25.2286 94.9829 25.2112 94.9228 25.1939 94.871L20.2427 80.9707H24.2837L27.1777 90.8772L29.9984 80.9707H33.8626L28.2171 97.1739C27.7945 98.386 27.2684 99.2137 26.6342 99.6536C26.0046 100.098 25.0559 100.318 23.7924 100.318C23.5638 100.318 23.3222 100.309 23.0592 100.292C22.8003 100.275 22.5244 100.249 22.2398 100.219Z" fill="#333333"/>
<path fill-rule="evenodd" clip-rule="evenodd" d="M109.345 10.785C108.989 10.8209 108.596 10.8209 108.24 10.8564C107.205 9.92932 105.886 9.32271 104.495 9.39414C102.105 9.5011 99.7874 11.5341 99.1812 14.6367C97.8973 13.5312 96.2566 13.1744 94.9727 13.7096C93.1181 14.4942 91.977 17.169 93.1181 19.7368C90.7286 17.4544 87.3407 16.7408 84.452 17.8467C80.315 19.4156 79.3878 23.5526 79.245 25.3717C79.0666 27.2974 79.4589 30.2575 81.7773 32.4685C84.5231 35.1078 88.1968 34.8579 89.9085 34.573C91.6203 34.2517 93.2251 33.4671 94.5804 32.3616C94.402 33.396 94.5449 34.6085 95.3295 35.4286C96.542 36.677 99.1453 36.784 101.214 34.9649C100.715 36.4986 100.928 38.1748 101.892 39.2089C103.354 40.7426 106.421 40.8141 108.56 38.6741C109.238 38.2818 109.951 37.8895 110.629 37.4972C108.774 41.0991 106.171 44.2376 102.926 46.6629C100.679 48.3391 98.2182 49.6585 95.6859 50.5146C88.6961 52.8326 81.1351 51.6911 74.5017 48.446C70.3291 45.9137 66.9411 42.276 64.7656 37.925C62.3403 33.1106 61.5557 27.6897 62.2334 22.554C63.0894 16.4199 66.7272 6.54094 76.9626 1.97605C81.5634 -0.0565785 87.1979 -0.62729 93.3679 0.763576C99.6805 2.18997 105.244 5.79225 109.345 10.785Z" fill="#C1CF65"/>
<path d="M57.3336 87.0714C57.1495 89.8028 56.0962 91.9768 54.1728 93.588C52.2497 95.1989 49.7413 96.0016 46.653 96.0016C43.0908 96.0016 40.3204 94.8923 38.3468 92.6681C36.3678 90.4495 35.3813 87.3333 35.3813 83.3251C35.3813 79.2334 36.3901 76.1006 38.4027 73.9209C40.4149 71.7417 43.3138 70.6543 47.0933 70.6543C50.165 70.6543 52.5895 71.4015 54.3678 72.9008C56.1461 74.3949 57.1272 76.5133 57.3003 79.2448H52.4168C52.2108 77.8845 51.6533 76.8478 50.75 76.1342C49.8471 75.4207 48.6263 75.0639 47.0934 75.0639C44.9137 75.0639 43.2579 75.7661 42.1263 77.1709C40.9947 78.5758 40.4263 80.6273 40.4263 83.3251C40.4263 85.9398 40.989 87.9577 42.1153 89.3849C43.2469 90.8116 44.8468 91.5252 46.9316 91.5252C48.4313 91.5252 49.6631 91.1408 50.6219 90.377C51.5808 89.6078 52.1995 88.5095 52.4837 87.0714L57.3336 87.0714Z" fill="#333333"/>
<path d="M59.6826 95.3323V71.2783H64.4044V79.54C65.0454 78.7315 65.8092 78.1238 66.7008 77.7171C67.5871 77.3101 68.5796 77.1037 69.6776 77.1037C70.7256 77.1037 71.6679 77.2821 72.5152 77.6445C73.3569 78.0013 74.0369 78.5142 74.5611 79.1775C74.9232 79.6235 75.1741 80.1364 75.3193 80.7162C75.4697 81.2903 75.5422 82.2155 75.5422 83.4922V83.8154V95.3324H70.8205V86.0396C70.8205 83.8377 70.6198 82.4608 70.2184 81.898C69.8114 81.3349 69.0925 81.0559 68.0444 81.0559C66.9238 81.0559 66.0375 81.3904 65.3855 82.0594C64.7332 82.7284 64.4044 83.6426 64.4044 84.7965V95.3323L59.6826 95.3323Z" fill="#333333"/>
<path d="M82.346 86.4305C82.346 88.1918 82.7085 89.552 83.433 90.5109C84.1579 91.4697 85.189 91.949 86.5269 91.949C87.8483 91.949 88.8684 91.4697 89.5929 90.5109C90.3178 89.552 90.6799 88.1918 90.6799 86.4305C90.6799 84.6798 90.3231 83.3252 89.6042 82.372C88.885 81.4189 87.8592 80.9449 86.5269 80.9449C85.189 80.9449 84.1579 81.4189 83.433 82.372C82.7085 83.3252 82.346 84.6798 82.346 86.4305ZM77.5298 86.4305C77.5298 83.4813 78.3326 81.1626 79.9324 79.4735C81.5323 77.7845 83.7286 76.9424 86.5326 76.9424C89.32 76.9424 91.5163 77.7845 93.1215 79.4735C94.727 81.1626 95.5298 83.4813 95.5298 86.4305C95.5298 89.3902 94.727 91.715 93.1215 93.4041C91.5163 95.0932 89.32 95.9349 86.5326 95.9349C83.7286 95.9349 81.5323 95.0932 79.9324 93.4041C78.3326 91.715 77.5298 89.3902 77.5298 86.4305Z" fill="#333333"/>
<path d="M110.01 86.5582C110.01 84.7743 109.67 83.4088 108.996 82.4665C108.321 81.5243 107.345 81.056 106.058 81.056C104.798 81.056 103.834 81.5243 103.176 82.4609C102.518 83.3974 102.189 84.7633 102.189 86.5582C102.189 88.236 102.535 89.535 103.226 90.4493C103.917 91.3635 104.893 91.8205 106.158 91.8205C107.357 91.8205 108.293 91.3522 108.979 90.4156C109.665 89.479 110.01 88.1914 110.01 86.5582ZM97.5679 102.451V77.5777H102.089V79.9803C102.775 78.9322 103.544 78.1741 104.385 77.6948C105.227 77.2152 106.225 76.9756 107.368 76.9756C109.553 76.9756 111.331 77.8396 112.692 79.5623C114.052 81.2903 114.732 83.5591 114.732 86.3632C114.732 89.2061 114.051 91.5139 112.692 93.2808C111.331 95.0481 109.575 95.9344 107.429 95.9344C106.297 95.9344 105.289 95.6948 104.402 95.2152C103.516 94.7359 102.775 94.039 102.189 93.1247V102.451L97.5679 102.451Z" fill="#20281E"/>
<path d="M117.082 95.3323V71.2783H122.033V90.8895H133.772V95.3323H117.082Z" fill="#333333"/>
<path d="M134.884 75.5991V71.2734H139.639V75.5991H134.884ZM134.884 95.3327V77.578H139.639V95.3327H134.884Z" fill="#333333"/>
<path d="M143.421 95.3324V80.9113H140.891V77.5777H143.421V75.9276C143.421 74.2721 143.851 73.0567 144.704 72.2762C145.556 71.5014 146.906 71.1113 148.745 71.1113C149.08 71.1113 149.437 71.117 149.816 71.1336C150.189 71.1503 150.59 71.1839 151.014 71.2228V74.9967H149.771C149.068 74.9967 148.6 75.0915 148.377 75.2752C148.154 75.4593 148.043 75.8161 148.043 76.3346V77.5777H151.014V80.9113H148.076V95.3324L143.421 95.3324Z" fill="#333333"/>
<path d="M163.085 89.9424H167.824C167.344 91.8152 166.38 93.2813 164.925 94.3407C163.47 95.4054 161.697 95.9349 159.607 95.9349C157.037 95.9349 155.002 95.0709 153.497 93.3482C151.998 91.6202 151.245 89.2844 151.245 86.33C151.245 83.4258 151.987 81.1346 153.464 79.4565C154.947 77.7788 156.97 76.9424 159.54 76.9424C162.266 76.9424 164.368 77.7675 165.85 79.4176C167.327 81.0677 168.069 83.4144 168.069 86.4638C168.069 86.8039 168.069 87.0545 168.063 87.2276C168.058 87.3946 168.041 87.5564 168.019 87.7068H156.162C156.229 89.1004 156.569 90.1484 157.182 90.8563C157.795 91.5646 158.681 91.9157 159.836 91.9157C160.655 91.9157 161.324 91.754 161.842 91.4361C162.366 91.1129 162.779 90.6167 163.085 89.9424ZM156.162 84.5853H163.152C163.108 83.3869 162.79 82.4779 162.199 81.8482C161.603 81.2238 160.749 80.9116 159.64 80.9116C158.609 80.9116 157.795 81.2295 157.199 81.8592C156.608 82.4892 156.262 83.3978 156.162 84.5853Z" fill="#333333"/>
</svg>
