<svg width="170" height="137" viewBox="0 0 170 137" fill="none" xmlns="http://www.w3.org/2000/svg">
<path d="M50.9348 68.9505C52.1328 67.3918 53.4968 66.038 55.0668 65.0126C55.1088 64.8075 55.1088 64.6844 55.1498 64.4383C53.8278 60.0491 56.2238 52.8295 57.6288 48.4404C64.0748 28.2584 85.6865 15.8704 106.389 17.6342C131.388 19.7262 149.57 41.0978 151.719 65.2176C152.628 75.4316 150.562 85.2355 144.859 93.7677C137.339 105.008 125.314 108.165 113 111.694C106.595 113.54 99.1988 115.959 91.5956 117.846C87.2155 119.693 82.5461 120.882 76.6371 120.513C76.5957 120.513 76.5131 120.472 76.4718 120.472C62.6698 121.621 49.9018 118.379 43.0008 103.407C37.2988 91.1834 39.2408 76.7443 50.9348 68.9505Z" fill="#C1CF65"/>
<path d="M132.877 83.3893C132.877 83.3893 129.695 73.6265 135.232 68.1297C140.769 62.6331 142.835 49.7117 130.025 43.1074" stroke="#2D2D2D" stroke-width="1.65287" stroke-miterlimit="10" stroke-linecap="round" stroke-linejoin="round" stroke-dasharray="1.65 1.65"/>
<path d="M140.686 115.139C133.885 115.139 128.372 109.666 128.372 102.915C128.372 96.1643 133.885 90.6914 140.686 90.6914C147.487 90.6914 153 96.1643 153 102.915C153 109.666 147.487 115.139 140.686 115.139Z" fill="#C1CF65" stroke="#2D2D2D" stroke-width="1.65287" stroke-miterlimit="10" stroke-linecap="round" stroke-linejoin="round"/>
<path d="M140.686 110.053C136.715 110.053 133.496 106.857 133.496 102.915C133.496 98.9739 136.715 95.7783 140.686 95.7783C144.657 95.7783 147.876 98.9739 147.876 102.915C147.876 106.857 144.657 110.053 140.686 110.053Z" fill="white" stroke="#2D2D2D" stroke-width="1.65287" stroke-miterlimit="10" stroke-linecap="round" stroke-linejoin="round"/>
<path d="M90.9761 129.537C84.1753 129.537 78.6622 124.064 78.6622 117.313C78.6622 110.562 84.1753 105.089 90.9761 105.089C97.7769 105.089 103.29 110.562 103.29 117.313C103.29 124.064 97.7769 129.537 90.9761 129.537Z" fill="#C1CF65" stroke="#2D2D2D" stroke-width="1.65287" stroke-miterlimit="10" stroke-linecap="round" stroke-linejoin="round"/>
<path d="M91.0999 124.616C87.2659 124.616 84.1579 121.53 84.1579 117.724C84.1579 113.918 87.2659 110.832 91.0999 110.832C94.9339 110.832 98.042 113.918 98.042 117.724C98.042 121.53 94.9339 124.616 91.0999 124.616Z" fill="white" stroke="#2D2D2D" stroke-width="1.65287" stroke-miterlimit="10" stroke-linecap="round" stroke-linejoin="round"/>
<path d="M142.422 103.49L142.711 102.998C143.248 102.013 142.876 100.824 141.926 100.291L127.422 92.4145C126.43 91.8812 125.232 92.2504 124.695 93.1939L124.406 93.6862C123.868 94.6706 124.24 95.8603 125.191 96.3935L139.695 104.269C140.686 104.802 141.926 104.433 142.422 103.49Z" fill="white" stroke="#2D2D2D" stroke-width="1.65287" stroke-miterlimit="10" stroke-linecap="round" stroke-linejoin="round"/>
<path d="M105.48 110.341L90.5213 114.689C89.8189 114.893 89.2404 115.304 88.8272 115.878C87.6288 117.519 88.2486 119.816 90.1081 120.636C90.8106 120.965 91.5957 121.005 92.3395 120.801L108.331 116.165L105.48 110.341Z" fill="white" stroke="#2D2D2D" stroke-width="1.65287" stroke-miterlimit="10" stroke-linecap="round" stroke-linejoin="round"/>
<path d="M115.604 77.4417L122.959 102.054C122.959 102.054 124.942 107.551 121.926 108.412C118.909 109.273 110.48 111.735 110.48 111.735L110.108 116.164L124.653 111.981C126.719 111.366 128.29 109.725 128.827 107.632L137.38 90.8963C137.339 90.9373 128.661 73.6678 115.604 77.4417Z" fill="white" stroke="#2D2D2D" stroke-width="1.65287" stroke-miterlimit="10" stroke-linecap="round" stroke-linejoin="round"/>
<path d="M104.364 94.5885C107.959 94.4655 110.81 97.583 110.356 101.111L110.934 115.96L105.149 117.642C105.149 117.642 104.199 99.962 88.2071 98.5264L88.3724 94.7937L104.364 94.5885Z" fill="white" stroke="#2D2D2D" stroke-width="1.65287" stroke-miterlimit="10" stroke-linecap="round" stroke-linejoin="round"/>
<path d="M85.315 96.4343C85.4389 97.9931 86.8026 99.1417 88.4141 99.0186L110.273 97.4599C111.844 97.3368 113.001 95.9831 112.877 94.3833C112.753 92.8245 111.389 91.676 109.778 91.7991L87.9182 93.3578C86.348 93.5219 85.191 94.8756 85.315 96.4343Z" fill="white" stroke="#2D2D2D" stroke-width="1.65287" stroke-miterlimit="10" stroke-linecap="round" stroke-linejoin="round"/>
<path d="M85.315 96.4343C85.4389 97.9931 86.8026 99.1417 88.4141 99.0186L110.273 97.4599C111.844 97.3368 113.001 95.9831 112.877 94.3833C112.753 92.8245 111.389 91.676 109.778 91.7991L87.9182 93.3578C86.348 93.5219 85.191 94.8756 85.315 96.4343Z" fill="#C1CF65" stroke="#2D2D2D" stroke-width="1.65287" stroke-miterlimit="10" stroke-linecap="round" stroke-linejoin="round"/>
<path d="M115.81 78.1395L123.786 75.8014C125.769 75.2271 126.926 73.1351 126.347 71.1251L125.81 69.3202C125.232 67.3512 123.124 66.2027 121.1 66.777L113.125 69.1151L115.81 78.1395Z" fill="white" stroke="#2D2D2D" stroke-width="1.65287" stroke-miterlimit="10" stroke-linecap="round" stroke-linejoin="round"/>
<path d="M110.397 74.2832L116.719 72.4372C117.835 72.109 118.455 70.9605 118.124 69.8529C117.794 68.7454 116.637 68.1301 115.521 68.4583L109.199 70.3041C108.083 70.6323 107.463 71.7808 107.794 72.8884C108.124 73.996 109.281 74.6112 110.397 74.2832Z" fill="#C1CF65" stroke="#2D2D2D" stroke-width="1.65287" stroke-miterlimit="10" stroke-linecap="round" stroke-linejoin="round"/>
<path d="M116.678 68.4589L110.604 61.2393" stroke="#2D2D2D" stroke-width="1.65287" stroke-miterlimit="10" stroke-linecap="round" stroke-linejoin="round"/>
<path d="M107.215 65.0951L110.067 64.2747C110.934 64.0285 111.43 63.1262 111.182 62.2647L111.058 61.8135C110.81 60.9521 109.901 60.4598 109.033 60.706L106.182 61.5263C105.315 61.7724 104.819 62.6749 105.067 63.5363L105.191 63.9875C105.438 64.849 106.348 65.3412 107.215 65.0951Z" fill="white" stroke="#2D2D2D" stroke-width="1.65287" stroke-miterlimit="10" stroke-linecap="round" stroke-linejoin="round"/>
<path d="M121.761 47.4562C120.438 50.6148 117.463 55.127 117.463 55.127C117.009 55.8244 116.058 56.0295 115.356 55.4962C115.356 55.4962 111.182 52.4607 108.868 49.9995C107.05 48.0716 105.48 46.3076 104.075 44.5848C98.827 38.1857 96.4304 33.2222 95.5213 28.0947C94.0337 19.8907 100.108 11.9738 108.372 10.538C116.637 9.06131 125.066 14.435 126.554 22.598C127.422 27.3974 127.009 32.5659 124.736 39.6214C123.951 42.0005 122.959 44.5848 121.761 47.4562ZM109.612 17.5525C105.108 18.3318 102.133 22.598 102.918 27.0692C103.703 31.5404 108.001 34.4938 112.505 33.7144C117.009 32.9351 119.984 28.6689 119.199 24.1978C118.414 19.7266 114.116 16.7731 109.612 17.5525Z" fill="white" stroke="#2D2D2D" stroke-width="1.65287" stroke-miterlimit="10" stroke-linecap="round" stroke-linejoin="round"/>
<path d="M134.075 47.9075C131.389 50.0406 126.595 52.5839 126.595 52.5839C125.852 52.994 124.901 52.7068 124.529 51.9275C124.529 51.9275 122.298 47.2512 121.471 44.0106C120.81 41.4674 120.273 39.1292 119.86 36.9962C118.331 28.8742 118.62 23.3774 120.273 18.455C122.918 10.5791 132.05 6.47712 140.025 9.10241C148 11.7277 152.835 20.424 150.19 28.2999C148.661 32.9351 145.81 37.2833 140.438 42.4109C138.62 44.1337 136.513 45.9385 134.075 47.9075ZM137.752 15.8707C133.414 14.4351 128.744 16.7732 127.298 21.0803C125.852 25.3874 128.207 30.0227 132.546 31.4584C136.885 32.8941 141.554 30.556 143 26.2489C144.446 21.9418 142.091 17.3064 137.752 15.8707Z" fill="#C1CF65" stroke="#2D2D2D" stroke-width="1.65287" stroke-miterlimit="10" stroke-linecap="round" stroke-linejoin="round"/>
<path d="M88.4552 81.2158L66.844 87.6149V38.1855L88.6618 46.5947C90.5626 46.9639 91.9263 48.6046 91.9263 50.5327V77.2778C91.9263 79.2467 90.4387 80.9286 88.4552 81.2158Z" fill="white" stroke="#2D2D2D" stroke-width="1.65287" stroke-miterlimit="10" stroke-linecap="round" stroke-linejoin="round"/>
<path d="M31.0182 80.6004L66.8442 87.6149V38.1855L34.2822 43.9694C32.3812 44.3386 31.0182 45.9793 31.0182 47.9074V80.6004Z" fill="white" stroke="#2D2D2D" stroke-width="1.65287" stroke-miterlimit="10" stroke-linecap="round" stroke-linejoin="round"/>
<path d="M31.018 51.4351L66.844 47.1689L91.9263 54.5527" stroke="#2D2D2D" stroke-width="1.65287" stroke-miterlimit="10" stroke-linecap="round" stroke-linejoin="round"/>
<path d="M53.5801 48.7274V41.4258" stroke="#2D2D2D" stroke-width="1.65287" stroke-miterlimit="10" stroke-linecap="round" stroke-linejoin="round"/>
<path d="M41.0591 50.2859V43.5586" stroke="#2D2D2D" stroke-width="1.65287" stroke-miterlimit="10" stroke-linecap="round" stroke-linejoin="round"/>
<path d="M66.8442 87.615L34.6952 97.5419L3.86924 87.615L31.0182 80.6006L66.8442 87.615Z" fill="white"/>
<path d="M66.8442 87.6151L39.9432 95.9012C36.5142 96.9677 32.8362 96.9266 29.4482 95.8191L7.87824 88.8867C6.72124 88.5176 6.76224 86.8357 7.96024 86.5485L31.0182 80.5596L66.8442 87.6151Z" stroke="#2D2D2D" stroke-width="1.65287" stroke-miterlimit="10" stroke-linecap="round" stroke-linejoin="round"/>
<path d="M31.0182 80.6001L66.8442 76.457" stroke="#2D2D2D" stroke-width="1.65287" stroke-miterlimit="10" stroke-linecap="round" stroke-linejoin="round"/>
<path d="M48.7861 59.1061V55.6193C48.7861 54.5939 47.9601 53.7324 46.8851 53.7324C46.8441 53.7324 46.8031 53.7324 46.7611 53.7324L43.6211 54.1426C42.6291 54.1837 41.8031 55.0041 41.8031 56.0295V59.5163" stroke="#2D2D2D" stroke-width="1.65287" stroke-miterlimit="10" stroke-linecap="round" stroke-linejoin="round"/>
<path d="M33.7861 84.7842L53.5801 86.6712L52.6711 58.1211L35.1911 59.7619L33.7861 84.7842Z" fill="#C1CF65" stroke="#2D2D2D" stroke-width="1.65287" stroke-miterlimit="10" stroke-linecap="round" stroke-linejoin="round"/>
<path d="M53.5802 86.6712L61.4722 84.169L59.2822 60.008L52.6702 58.1211L53.5802 86.6712Z" fill="#C1CF65" stroke="#2D2D2D" stroke-width="1.65287" stroke-miterlimit="10" stroke-linecap="round" stroke-linejoin="round"/>
<path d="M79.8193 112.186L64.9852 115.139" stroke="#2D2D2D" stroke-width="1.65287" stroke-miterlimit="10" stroke-linecap="round" stroke-linejoin="round"/>
<path d="M78.6621 118.626L68.5791 120.595" stroke="#2D2D2D" stroke-width="1.65287" stroke-miterlimit="10" stroke-linecap="round" stroke-linejoin="round"/>
<path d="M80.5215 124.656L72.8356 126.174" stroke="#2D2D2D" stroke-width="1.65287" stroke-miterlimit="10" stroke-linecap="round" stroke-linejoin="round"/>
<path d="M61.6372 11.0303C61.6372 11.0303 61.4722 14.3529 68.4142 23.9927C75.3564 33.6324 84.5712 29.6944 85.0258 26.4129C85.5216 23.1312 81.9266 22.598 81.9266 22.598C80.7283 22.598 79.6539 22.3518 78.7448 22.68C78.7448 22.68 69.4062 21.9826 72.8358 40.1956" stroke="#2D2D2D" stroke-width="1.65287" stroke-miterlimit="10" stroke-linecap="round" stroke-linejoin="round" stroke-dasharray="2.89 2.89"/>
<path d="M58.0421 12.0144C58.5381 11.276 59.0761 10.5787 59.6951 9.88135C60.1091 9.43013 60.5631 8.7738 61.1831 8.60973C61.7201 8.48666 62.1751 8.81483 62.5881 9.06095C63.4971 9.59421 64.3651 10.1685 65.2741 10.7428C66.1001 11.276 65.3561 12.5887 64.4891 12.0554C63.9931 11.7272 63.4561 11.3991 62.9601 11.1119C62.7121 10.9479 61.7201 10.1275 61.4311 10.1685C61.6791 10.0865 61.6371 10.2095 61.2661 10.4556C61.0591 10.6608 60.8521 10.9069 60.6461 11.1119C60.1911 11.6452 59.7781 12.1785 59.4061 12.7528C58.8281 13.5732 57.4641 12.8348 58.0421 12.0144Z" fill="#2D2D2D"/>
</svg>
