<svg width="139" height="29" viewBox="0 0 139 29" fill="none" xmlns="http://www.w3.org/2000/svg">
<g id="Trex Landscape Logo" clip-path="url(#clip0_301_5125)">
<g id="Layer_x0020_1">
<g id="_385173840">
<path id="_382523064" d="M38.4625 23.409C39.7576 23.4003 40.957 23.1753 42.0614 22.7336C43.1657 22.2875 44.1488 21.6682 45.0063 20.8713C45.8594 20.0744 46.5654 19.1476 47.1152 18.0823L44.5688 16.7311C44.205 17.4977 43.7287 18.1734 43.1483 18.758C42.5638 19.3426 41.8751 19.7973 41.0869 20.1266C40.2987 20.4556 39.4154 20.6245 38.4367 20.6289C37.4494 20.6245 36.5397 20.4382 35.7041 20.0831C34.8724 19.7238 34.1451 19.2256 33.5213 18.5891C32.9022 17.9524 32.4172 17.2164 32.075 16.376C31.7328 15.5359 31.5552 14.6307 31.551 13.6652C31.5552 12.6821 31.7328 11.7727 32.075 10.9239C32.4214 10.0793 32.9022 9.33453 33.5257 8.69359C34.1493 8.05687 34.8769 7.5545 35.717 7.19516C36.5529 6.83558 37.471 6.65379 38.4626 6.64933C39.3548 6.65379 40.1775 6.80105 40.9268 7.09111C41.676 7.38563 42.343 7.80134 42.9276 8.33402C43.5079 8.87115 43.9971 9.50341 44.387 10.2352L46.8554 8.70205C46.2882 7.74075 45.578 6.90487 44.7248 6.1904C43.876 5.47571 42.9189 4.92143 41.858 4.5231C40.7969 4.129 39.6622 3.92537 38.4626 3.92114C37.3714 3.92537 36.3406 4.08578 35.3619 4.40191C34.3874 4.72227 33.4954 5.17274 32.6856 5.75731C31.8758 6.34189 31.1785 7.03921 30.5852 7.84478C29.992 8.65013 29.5328 9.54238 29.2124 10.5253C28.8876 11.5084 28.723 12.5522 28.7188 13.6652C28.723 14.7435 28.8789 15.7698 29.1951 16.7443C29.5067 17.7143 29.953 18.6063 30.5333 19.4205C31.1134 20.2304 31.8021 20.9319 32.6076 21.5296C33.413 22.1229 34.3095 22.5863 35.2926 22.9111C36.28 23.2401 37.3366 23.4048 38.4625 23.409Z" fill="#C1CF65"/>
<path id="_3825230641" d="M48.8145 23.1493H51.6208V15.4061C51.6251 14.7738 51.7204 14.2064 51.9109 13.6998C52.0972 13.1974 52.3614 12.7643 52.7036 12.4092C53.0413 12.0499 53.4354 11.777 53.8901 11.5865C54.3403 11.396 54.8343 11.3007 55.3625 11.3007C56.1594 11.3049 56.8219 11.4653 57.3546 11.7856C57.8873 12.1062 58.2856 12.5565 58.5498 13.1455C58.814 13.7301 58.9484 14.4229 58.9484 15.2243V23.1493H61.8065V15.0164C61.8022 13.7301 61.5683 12.6258 61.1007 11.7034C60.6373 10.7809 59.9748 10.0751 59.1173 9.58143C58.2553 9.08774 57.2289 8.83644 56.0382 8.83221C55.4057 8.83644 54.8124 8.92311 54.2626 9.10066C53.7126 9.27822 53.2144 9.52929 52.7642 9.84988C52.3137 10.1747 51.9241 10.5514 51.5948 10.9887V2.67383H48.8145V23.1493Z" fill="#C1CF65"/>
<path id="_38252306412" d="M70.9128 23.4354C71.9347 23.4268 72.8833 23.2405 73.7624 22.8638C74.6457 22.4913 75.4166 21.9718 76.0836 21.3048C76.7506 20.6377 77.2701 19.8669 77.6426 18.9836C78.0193 18.1045 78.2098 17.1516 78.2143 16.134C78.2098 15.1119 78.0193 14.1635 77.6426 13.2844C77.2701 12.4008 76.7506 11.63 76.0836 10.9632C75.4165 10.2962 74.6457 9.77644 73.7624 9.40418C72.8833 9.02722 71.9347 8.83675 70.9128 8.83252C69.8951 8.83675 68.9423 9.02722 68.0632 9.40418C67.1796 9.77644 66.4088 10.2962 65.742 10.9632C65.075 11.63 64.5552 12.4008 64.183 13.2844C63.806 14.1635 63.62 15.1119 63.6113 16.134C63.62 17.1517 63.806 18.1045 64.183 18.9836C64.5552 19.8669 65.075 20.6377 65.742 21.3048C66.4088 21.9718 67.1796 22.4913 68.0632 22.8638C68.9423 23.2405 69.8951 23.4268 70.9128 23.4354ZM70.9128 20.8111C70.2718 20.8068 69.6786 20.6854 69.1372 20.4473C68.5914 20.2046 68.1151 19.8714 67.7081 19.447C67.3053 19.0226 66.9891 18.5244 66.7597 17.9615C66.5344 17.3985 66.422 16.7878 66.4175 16.134C66.422 15.4801 66.5345 14.8695 66.7597 14.3065C66.9891 13.7433 67.3053 13.2454 67.7081 12.821C68.1151 12.3923 68.5914 12.0631 69.1372 11.8207C69.6786 11.5823 70.2718 11.4611 70.9128 11.4569C71.545 11.4611 72.1383 11.5823 72.6839 11.8207C73.2297 12.0631 73.706 12.3923 74.1175 12.821C74.5288 13.2454 74.8536 13.7433 75.0833 14.3065C75.3127 14.8695 75.4297 15.4801 75.4339 16.134C75.4297 16.7878 75.3127 17.3985 75.0875 17.9615C74.858 18.5244 74.5375 19.0226 74.1304 19.447C73.719 19.8714 73.2426 20.2046 72.6926 20.4473C72.147 20.6854 71.5537 20.8068 70.9128 20.8111Z" fill="#C1CF65"/>
<path id="_382523064123" d="M87.6308 23.4355C88.3626 23.4312 89.0729 23.323 89.757 23.0977C90.4457 22.8725 91.0824 22.5519 91.6712 22.132C92.2647 21.7076 92.78 21.1965 93.226 20.6032C93.6678 20.0055 94.0184 19.33 94.2653 18.5808C94.5166 17.8271 94.6422 17.0131 94.6464 16.134C94.6422 15.2504 94.5166 14.4277 94.274 13.6785C94.0271 12.925 93.6852 12.2536 93.2476 11.6561C92.8058 11.0583 92.295 10.5517 91.7059 10.1316C91.1169 9.71162 90.4804 9.39103 89.7873 9.16579C89.099 8.94502 88.38 8.83252 87.6308 8.83252C86.9854 8.83252 86.3618 8.9321 85.7599 9.12258C85.1579 9.31305 84.6036 9.58597 84.097 9.93685C83.5902 10.2875 83.1571 10.7077 82.7978 11.1969V9.11835H80.0693V28.7622H82.7978V21.2787C83.1484 21.7466 83.5728 22.1407 84.0752 22.4611C84.5733 22.7816 85.1276 23.024 85.7296 23.1887C86.336 23.3533 86.9683 23.4355 87.6308 23.4355ZM87.2409 20.863C86.5742 20.8587 85.9635 20.7331 85.4005 20.4905C84.8376 20.2436 84.3523 19.9059 83.9324 19.4686C83.5167 19.0355 83.1961 18.5331 82.9666 17.9572C82.7372 17.3856 82.6202 16.7662 82.6157 16.1079C82.6202 15.454 82.7372 14.8434 82.9666 14.2717C83.1961 13.7045 83.5167 13.2022 83.9324 12.7691C84.3523 12.336 84.8376 11.9982 85.4005 11.7514C85.9635 11.5088 86.5742 11.3831 87.2409 11.3789C87.895 11.3831 88.5012 11.5046 89.0555 11.7427C89.6142 11.9851 90.0992 12.3186 90.5149 12.7475C90.9306 13.1803 91.2555 13.6785 91.4894 14.2501C91.7189 14.8218 91.8358 15.4411 91.8403 16.1079C91.8358 16.7749 91.7189 17.3943 91.4894 17.9701C91.2555 18.5418 90.9306 19.0484 90.5149 19.4815C90.0992 19.9104 89.6142 20.2481 89.0555 20.4949C88.5012 20.7373 87.895 20.8587 87.2409 20.863Z" fill="#C1CF65"/>
<path id="_3825230641234" d="M96.7627 23.1493H108.819V20.3951H99.5949V4.18091H96.7627V23.1493Z" fill="#C1CF65"/>
<path id="_38252306412345" d="M110.961 23.1493H113.794V9.118H110.961V23.1493ZM110.39 4.90853C110.394 5.29394 110.476 5.63613 110.641 5.93488C110.806 6.23363 111.039 6.47178 111.334 6.64511C111.628 6.81844 111.971 6.90487 112.365 6.90934C112.758 6.90487 113.105 6.81844 113.404 6.64511C113.703 6.47178 113.937 6.23363 114.105 5.93488C114.274 5.63613 114.361 5.29394 114.365 4.90853C114.361 4.52311 114.274 4.18092 114.105 3.88217C113.937 3.58342 113.703 3.34503 113.404 3.17194C113.105 2.99861 112.758 2.91218 112.365 2.90771C111.979 2.91218 111.641 2.99861 111.342 3.17194C111.048 3.34503 110.819 3.58342 110.65 3.88217C110.481 4.18092 110.394 4.52311 110.39 4.90853Z" fill="#C1CF65"/>
<path id="_382523064123456" d="M115.233 11.6385H117.676V23.1495H120.43V11.6385H123.964V9.11819H120.43V8.33867C120.426 7.68457 120.456 7.15636 120.53 6.75357C120.599 6.34655 120.742 6.03465 120.95 5.82257C121.158 5.60602 121.47 5.45876 121.877 5.38079C122.288 5.30281 122.825 5.26805 123.496 5.27252H123.964V2.67397H123.289C122.21 2.66974 121.305 2.76063 120.582 2.94266C119.854 3.1289 119.283 3.43634 118.854 3.86497C118.429 4.29383 118.126 4.87395 117.944 5.60156C117.763 6.32917 117.672 7.22987 117.676 8.3126V9.11819H115.233V11.6385Z" fill="#C1CF65"/>
<path id="_3825230641234567" d="M131.458 23.4355C132.472 23.4312 133.377 23.2882 134.174 23.0111C134.971 22.7295 135.676 22.3398 136.287 21.8332C136.898 21.3308 137.43 20.7373 137.876 20.0576L135.564 18.6804C135.287 19.1351 134.957 19.5292 134.568 19.8669C134.182 20.2047 133.732 20.4689 133.217 20.6551C132.701 20.8414 132.116 20.9367 131.458 20.941C130.596 20.9367 129.839 20.7763 129.176 20.4647C128.513 20.1528 127.972 19.7197 127.548 19.1567C127.128 18.5937 126.846 17.9312 126.703 17.1733H138.5V16.0041C138.496 14.9604 138.314 14.0033 137.959 13.1284C137.599 12.258 137.097 11.5001 136.452 10.8592C135.802 10.2182 135.044 9.72031 134.169 9.36942C133.295 9.0143 132.342 8.83675 131.302 8.83252C130.263 8.83675 129.302 9.02722 128.418 9.39972C127.535 9.77221 126.764 10.292 126.101 10.9587C125.443 11.6258 124.928 12.4053 124.559 13.2931C124.191 14.1809 124.005 15.1466 124.001 16.1859C124.005 17.2122 124.183 18.1606 124.538 19.0397C124.893 19.9146 125.395 20.6812 126.054 21.3393C126.712 21.9976 127.496 22.5087 128.41 22.8767C129.319 23.245 130.337 23.4312 131.458 23.4355ZM131.302 11.301C132.077 11.301 132.766 11.4395 133.368 11.7124C133.974 11.9851 134.472 12.3792 134.867 12.899C135.261 13.4143 135.525 14.0423 135.668 14.7828H126.807C126.993 14.1029 127.297 13.5009 127.721 12.977C128.141 12.4572 128.656 12.0502 129.267 11.7514C129.873 11.4569 130.553 11.3052 131.302 11.301Z" fill="#C1CF65"/>
<path id="_382173432" fill-rule="evenodd" clip-rule="evenodd" d="M24.889 5.66962C24.7016 5.68841 24.4954 5.68841 24.308 5.70697C23.7643 5.21962 23.0705 4.90091 22.3393 4.93849C21.0831 4.99462 19.8646 6.06326 19.5459 7.6944C18.8709 7.11311 18.0084 6.92569 17.3334 7.20682C16.3585 7.61947 15.7587 9.02561 16.3585 10.3754C15.1025 9.17545 13.3215 8.80061 11.8029 9.38166C9.62801 10.2067 9.14043 12.3814 9.06551 13.3375C8.97179 14.35 9.17801 15.9062 10.3967 17.0686C11.8402 18.4559 13.7713 18.3246 14.6713 18.1748C15.5713 18.0059 16.4149 17.5935 17.1272 17.0122C17.0335 17.5559 17.1085 18.1933 17.5211 18.6245C18.1585 19.2807 19.5271 19.3371 20.6145 18.381C20.3519 19.187 20.4644 20.0682 20.9708 20.6119C21.7393 21.418 23.3516 21.4556 24.4766 20.3306C24.8329 20.1244 25.2077 19.9182 25.564 19.7119C24.5891 21.6057 23.2205 23.2554 21.5143 24.5302C20.3331 25.4114 19.0395 26.1052 17.7085 26.5552C14.0338 27.7737 10.0592 27.1738 6.57196 25.4678C4.37856 24.1366 2.59735 22.2243 1.4538 19.937C0.17895 17.4061 -0.233472 14.5562 0.122583 11.8564C0.572584 8.63176 2.48485 3.43843 7.8656 1.03883C10.2842 -0.0298056 13.2464 -0.329728 16.4898 0.401405C19.8082 1.15133 22.733 3.0448 24.889 5.66962Z" fill="#C1CF65"/>
</g>
</g>
</g>
<defs>
<clipPath id="clip0_301_5125">
<rect width="138.5" height="28.7622" fill="white"/>
</clipPath>
</defs>
</svg>
