<svg width="227" height="52" viewBox="0 0 227 52" fill="none" xmlns="http://www.w3.org/2000/svg">
<path fill-rule="evenodd" clip-rule="evenodd" d="M47.3455 10.785C46.9891 10.8209 46.5968 10.8209 46.24 10.8564C45.206 9.92932 43.8862 9.32271 42.4953 9.39414C40.1059 9.5011 37.7879 11.5341 37.1817 14.6367C35.8977 13.5312 34.2571 13.1744 32.9732 13.7096C31.1185 14.4942 29.9775 17.169 31.1185 19.7368C28.7291 17.4544 25.3412 16.7408 22.4525 17.8467C18.3154 19.4156 17.3883 23.5526 17.2455 25.3717C17.0671 27.2974 17.4594 30.2575 19.7777 32.4685C22.5236 35.1078 26.1973 34.8579 27.909 34.573C29.6208 34.2517 31.2255 33.4671 32.5809 32.3616C32.4025 33.396 32.5454 34.6085 33.33 35.4286C34.5425 36.677 37.1458 36.784 39.2143 34.9649C38.7151 36.4986 38.929 38.1748 39.892 39.2089C41.3543 40.7426 44.4214 40.8141 46.561 38.6741C47.2386 38.2818 47.9518 37.8895 48.6295 37.4972C46.7749 41.0991 44.1716 44.2376 40.9261 46.6629C38.6795 48.3391 36.2187 49.6585 33.6864 50.5146C26.6965 52.8326 19.1356 51.6911 12.5022 48.446C8.32957 45.9137 4.94161 42.276 2.76613 37.925C0.340813 33.1106 -0.443818 27.6897 0.233853 22.554C1.08991 16.4199 4.7277 6.54094 14.963 1.97605C19.5639 -0.0565785 25.1983 -0.62729 31.3684 0.763576C37.681 2.18997 43.2444 5.79225 47.3455 10.785Z" fill="#C1CF65"/>
<path d="M58.2202 35.7065V21.9702H61.7091V23.4884C62.2224 22.8588 62.7961 22.3799 63.4258 22.0609C64.0596 21.7415 64.7584 21.582 65.526 21.582C66.3931 21.582 67.1346 21.7461 67.7473 22.0692C68.3641 22.3927 68.8989 22.9018 69.3517 23.6003C69.8347 22.9275 70.3997 22.423 71.0593 22.0866C71.715 21.7502 72.4482 21.582 73.2589 21.582C74.6392 21.582 75.7345 21.9876 76.5452 22.7937C77.3518 23.6048 77.7573 24.7047 77.7573 26.1061V35.7065H74.1301V26.8609C74.1301 26.1969 73.9491 25.6791 73.5912 25.3125C73.2332 24.9462 72.737 24.7648 72.0945 24.7648C71.3786 24.7648 70.8094 24.9976 70.391 25.4678C69.9681 25.9338 69.7568 26.5722 69.7568 27.3783V35.7065H66.1686V26.887C66.1686 26.2139 65.992 25.6923 65.6424 25.3212C65.2932 24.9504 64.8057 24.7648 64.1718 24.7648C63.456 24.7648 62.8909 25.0022 62.4726 25.4724C62.0542 25.9422 61.8474 26.5892 61.8474 27.4045V35.7066L58.2202 35.7065Z" fill="#333333"/>
<path d="M80.46 41.2186V38.2472C80.5764 38.2646 80.7015 38.2774 80.8266 38.2861C80.9517 38.2948 81.1154 38.299 81.3179 38.299C82.0429 38.299 82.586 38.1266 82.9484 37.7857C83.3105 37.4452 83.4919 36.9319 83.4919 36.2505C83.4919 36.1987 83.4832 36.1382 83.4658 36.0607C83.4488 35.9829 83.4315 35.9228 83.4141 35.871L78.4629 21.9707H82.504L85.3979 31.8772L88.2186 21.9707H92.0828L86.4373 38.1739C86.0148 39.386 85.4887 40.2137 84.8544 40.6536C84.2248 41.0981 83.2761 41.3181 82.0126 41.3181C81.784 41.3181 81.5424 41.3094 81.2794 41.292C81.0205 41.275 80.7446 41.2489 80.46 41.2186Z" fill="#333333"/>
<path d="M115.554 28.0714C115.37 30.8028 114.316 32.9768 112.393 34.588C110.47 36.1989 107.961 37.0016 104.873 37.0016C101.311 37.0016 98.5406 35.8923 96.567 33.6681C94.588 31.4495 93.6016 28.3333 93.6016 24.3251C93.6016 20.2334 94.6103 17.1006 96.6229 14.9209C98.6351 12.7417 101.534 11.6543 105.314 11.6543C108.385 11.6543 110.81 12.4015 112.588 13.9008C114.366 15.3949 115.347 17.5133 115.521 20.2448H110.637C110.431 18.8845 109.874 17.8478 108.97 17.1342C108.067 16.4207 106.847 16.0639 105.314 16.0639C103.134 16.0639 101.478 16.7661 100.347 18.1709C99.2149 19.5758 98.6465 21.6273 98.6465 24.3251C98.6465 26.9398 99.2093 28.9577 100.336 30.3849C101.467 31.8116 103.067 32.5252 105.152 32.5252C106.652 32.5252 107.883 32.1408 108.842 31.377C109.801 30.6078 110.42 29.5095 110.704 28.0714L115.554 28.0714Z" fill="#333333"/>
<path d="M117.903 36.3333V12.2793H122.625V20.541C123.266 19.7325 124.03 19.1248 124.922 18.7181C125.808 18.311 126.8 18.1047 127.898 18.1047C128.946 18.1047 129.889 18.2831 130.736 18.6455C131.578 19.0023 132.258 19.5152 132.782 20.1785C133.144 20.6245 133.395 21.1374 133.54 21.7171C133.69 22.2913 133.763 23.2165 133.763 24.4932V24.8164V36.3333H129.041V27.0406C129.041 24.8387 128.841 23.4618 128.439 22.899C128.032 22.3358 127.313 22.0569 126.265 22.0569C125.145 22.0569 124.258 22.3914 123.606 23.0604C122.954 23.7294 122.625 24.6436 122.625 25.7975V36.3333L117.903 36.3333Z" fill="#333333"/>
<path d="M140.566 27.4295C140.566 29.1908 140.929 30.551 141.653 31.5099C142.378 32.4688 143.409 32.948 144.747 32.948C146.068 32.948 147.089 32.4688 147.813 31.5099C148.538 30.551 148.9 29.1908 148.9 27.4295C148.9 25.6788 148.543 24.3243 147.824 23.3711C147.105 22.4179 146.079 21.9439 144.747 21.9439C143.409 21.9439 142.378 22.4179 141.653 23.3711C140.929 24.3243 140.566 25.6788 140.566 27.4295ZM135.75 27.4295C135.75 24.4804 136.553 22.1616 138.153 20.4725C139.753 18.7835 141.949 17.9414 144.753 17.9414C147.54 17.9414 149.737 18.7835 151.342 20.4725C152.947 22.1616 153.75 24.4804 153.75 27.4295C153.75 30.3893 152.947 32.7141 151.342 34.4031C149.737 36.0922 147.54 36.9339 144.753 36.9339C141.949 36.9339 139.753 36.0922 138.153 34.4031C136.553 32.714 135.75 30.3893 135.75 27.4295Z" fill="#333333"/>
<path d="M168.23 27.5592C168.23 25.7753 167.89 24.4097 167.216 23.4675C166.541 22.5253 165.566 22.057 164.278 22.057C163.018 22.057 162.054 22.5253 161.396 23.4618C160.738 24.3984 160.409 25.7643 160.409 27.5592C160.409 29.2369 160.755 30.536 161.446 31.4502C162.137 32.3645 163.113 32.8214 164.379 32.8214C165.577 32.8214 166.514 32.3532 167.199 31.4166C167.885 30.48 168.23 29.1923 168.23 27.5592ZM155.788 43.4521V18.5786H160.309V20.9813C160.995 19.9332 161.764 19.175 162.606 18.6958C163.448 18.2162 164.445 17.9766 165.588 17.9766C167.773 17.9766 169.552 18.8406 170.912 20.5633C172.272 22.2913 172.952 24.5601 172.952 27.3641C172.952 30.2071 172.272 32.5149 170.912 34.2818C169.552 36.0491 167.796 36.9354 165.649 36.9354C164.518 36.9354 163.509 36.6958 162.623 36.2162C161.736 35.7369 160.995 35.04 160.409 34.1257V43.4521L155.788 43.4521Z" fill="#20281E"/>
<path d="M175.302 36.3333V12.2793H180.253V31.8904H191.992V36.3333H175.302Z" fill="#333333"/>
<path d="M193.104 16.5991V12.2734H197.86V16.5991H193.104ZM193.104 36.3327V18.578H197.86V36.3327H193.104Z" fill="#333333"/>
<path d="M201.642 36.3324V21.9113H199.111V18.5777H201.642V16.9276C201.642 15.2721 202.071 14.0567 202.924 13.2762C203.777 12.5014 205.126 12.1113 206.965 12.1113C207.3 12.1113 207.657 12.117 208.036 12.1336C208.409 12.1503 208.811 12.1839 209.234 12.2228V15.9967H207.991C207.289 15.9967 206.82 16.0915 206.597 16.2752C206.374 16.4593 206.263 16.8161 206.263 17.3346V18.5777H209.234V21.9113H206.296V36.3324L201.642 36.3324Z" fill="#333333"/>
<path d="M221.305 30.9415H226.044C225.565 32.8142 224.6 34.2803 223.145 35.3397C221.69 36.4044 219.918 36.9339 217.827 36.9339C215.257 36.9339 213.223 36.0699 211.718 34.3472C210.218 32.6192 209.465 30.2834 209.465 27.329C209.465 24.4248 210.207 22.1337 211.684 20.4555C213.167 18.7778 215.19 17.9414 217.76 17.9414C220.486 17.9414 222.588 18.7665 224.071 20.4166C225.548 22.0668 226.289 24.4135 226.289 27.4628C226.289 27.8029 226.289 28.0535 226.283 28.2266C226.278 28.3937 226.261 28.5554 226.239 28.7059H214.382C214.449 30.0994 214.789 31.1474 215.402 31.8553C216.015 32.5636 216.902 32.9147 218.056 32.9147C218.875 32.9147 219.544 32.753 220.062 32.4351C220.587 32.112 220.999 31.6157 221.305 30.9415ZM214.382 25.5844H221.372C221.328 24.3859 221.01 23.4769 220.419 22.8472C219.823 22.2229 218.97 21.9107 217.86 21.9107C216.829 21.9107 216.015 22.2285 215.419 22.8582C214.828 23.4882 214.482 24.3968 214.382 25.5844Z" fill="#333333"/>
</svg>
