<svg width="228" height="52" viewBox="0 0 228 52" fill="none" xmlns="http://www.w3.org/2000/svg">
<path fill-rule="evenodd" clip-rule="evenodd" d="M48.2303 10.785C47.8739 10.8209 47.4816 10.8209 47.1248 10.8564C46.0907 9.92932 44.7709 9.32271 43.3801 9.39414C40.9906 9.5011 38.6727 11.5341 38.0664 14.6367C36.7825 13.5312 35.1418 13.1744 33.8579 13.7096C32.0033 14.4942 30.8623 17.169 32.0033 19.7368C29.6139 17.4544 26.2259 16.7408 23.3373 17.8467C19.2002 19.4156 18.2731 23.5526 18.1302 25.3717C17.9518 27.2974 18.3441 30.2575 20.6625 32.4685C23.4083 35.1078 27.082 34.8579 28.7938 34.573C30.5055 34.2517 32.1103 33.4671 33.4656 32.3616C33.2873 33.396 33.4301 34.6085 34.2148 35.4286C35.4272 36.677 38.0306 36.784 40.0991 34.9649C39.5998 36.4986 39.8137 38.1748 40.7768 39.2089C42.2391 40.7426 45.3061 40.8141 47.4457 38.6741C48.1234 38.2818 48.8366 37.8895 49.5143 37.4972C47.6597 41.0991 45.0563 44.2376 41.8108 46.6629C39.5643 48.3391 37.1034 49.6585 34.5712 50.5146C27.5813 52.8326 20.0204 51.6911 13.3869 48.446C9.21434 45.9137 5.82638 42.276 3.6509 37.925C1.22558 33.1106 0.440948 27.6897 1.11862 22.554C1.97468 16.4199 5.61247 6.54094 15.8478 1.97605C20.4486 -0.0565785 26.0831 -0.62729 32.2532 0.763576C38.5657 2.18997 44.1292 5.79225 48.2303 10.785Z" fill="#C1CF65"/>
<path d="M59.105 35.7065V21.9702H62.5939V23.4884C63.1071 22.8588 63.6808 22.3799 64.3105 22.0609C64.9443 21.7415 65.6432 21.582 66.4108 21.582C67.2778 21.582 68.0194 21.7461 68.632 22.0692C69.2488 22.3927 69.7836 22.9018 70.2364 23.6003C70.7195 22.9275 71.2845 22.423 71.944 22.0866C72.5998 21.7502 73.333 21.582 74.1437 21.582C75.524 21.582 76.6193 21.9876 77.43 22.7937C78.2365 23.6048 78.6421 24.7047 78.6421 26.1061V35.7065H75.0149V26.8609C75.0149 26.1969 74.8338 25.6791 74.4759 25.3125C74.118 24.9462 73.6217 24.7648 72.9792 24.7648C72.2634 24.7648 71.6942 24.9976 71.2758 25.4678C70.8529 25.9338 70.6416 26.5722 70.6416 27.3783V35.7065H67.0533V26.887C67.0533 26.2139 66.8768 25.6923 66.5272 25.3212C66.178 24.9504 65.6904 24.7648 65.0566 24.7648C64.3408 24.7648 63.7757 25.0022 63.3573 25.4724C62.9389 25.9422 62.7322 26.5892 62.7322 27.4045V35.7066L59.105 35.7065Z" fill="#333333"/>
<path d="M81.3448 41.2177V38.2462C81.4612 38.2636 81.5863 38.2764 81.7114 38.2851C81.8365 38.2938 82.0001 38.298 82.2027 38.298C82.9276 38.298 83.4707 38.1256 83.8332 37.7847C84.1953 37.4442 84.3767 36.9309 84.3767 36.2495C84.3767 36.1977 84.368 36.1372 84.3506 36.0598C84.3336 35.9819 84.3162 35.9218 84.2988 35.87L79.3477 21.9697H83.3887L86.2827 31.8763L89.1034 21.9697H92.9675L87.3221 38.1729C86.8995 39.385 86.3734 40.2127 85.7392 40.6526C85.1095 41.0971 84.1609 41.3171 82.8974 41.3171C82.6687 41.3171 82.4272 41.3084 82.1642 41.291C81.9053 41.274 81.6294 41.2479 81.3448 41.2177Z" fill="#333333"/>
<path d="M116.439 28.0714C116.254 30.8028 115.201 32.9768 113.278 34.588C111.355 36.1989 108.846 37.0016 105.758 37.0016C102.196 37.0016 99.4254 35.8923 97.4517 33.6681C95.4728 31.4495 94.4863 28.3333 94.4863 24.3251C94.4863 20.2334 95.4951 17.1006 97.5077 14.9209C99.5199 12.7417 102.419 11.6543 106.198 11.6543C109.27 11.6543 111.695 12.4015 113.473 13.9008C115.251 15.3949 116.232 17.5133 116.405 20.2448H111.522C111.316 18.8845 110.758 17.8478 109.855 17.1342C108.952 16.4207 107.731 16.0639 106.198 16.0639C104.019 16.0639 102.363 16.7661 101.231 18.1709C100.1 19.5758 99.5313 21.6273 99.5313 24.3251C99.5313 26.9398 100.094 28.9577 101.22 30.3849C102.352 31.8116 103.952 32.5252 106.037 32.5252C107.536 32.5252 108.768 32.1408 109.727 31.377C110.686 30.6078 111.304 29.5095 111.589 28.0714L116.439 28.0714Z" fill="#333333"/>
<path d="M118.788 36.3323V12.2783H123.51V20.54C124.151 19.7315 124.915 19.1238 125.806 18.7171C126.693 18.3101 127.685 18.1037 128.783 18.1037C129.831 18.1037 130.773 18.2821 131.621 18.6445C132.462 19.0013 133.142 19.5142 133.667 20.1775C134.029 20.6235 134.28 21.1364 134.425 21.7162C134.575 22.2903 134.648 23.2155 134.648 24.4922V24.8154V36.3324H129.926V27.0396C129.926 24.8377 129.725 23.4608 129.324 22.898C128.917 22.3349 128.198 22.0559 127.15 22.0559C126.029 22.0559 125.143 22.3904 124.491 23.0594C123.839 23.7284 123.51 24.6426 123.51 25.7965V36.3323L118.788 36.3323Z" fill="#333333"/>
<path d="M141.451 27.4305C141.451 29.1918 141.813 30.552 142.538 31.5109C143.263 32.4697 144.294 32.949 145.632 32.949C146.953 32.949 147.973 32.4697 148.698 31.5109C149.423 30.552 149.785 29.1918 149.785 27.4305C149.785 25.6798 149.428 24.3252 148.709 23.372C147.99 22.4189 146.964 21.9449 145.632 21.9449C144.294 21.9449 143.263 22.4189 142.538 23.372C141.813 24.3252 141.451 25.6798 141.451 27.4305ZM136.635 27.4305C136.635 24.4813 137.438 22.1626 139.037 20.4735C140.637 18.7845 142.834 17.9424 145.638 17.9424C148.425 17.9424 150.621 18.7845 152.226 20.4735C153.832 22.1626 154.635 24.4813 154.635 27.4305C154.635 30.3902 153.832 32.715 152.226 34.4041C150.621 36.0932 148.425 36.9349 145.638 36.9349C142.834 36.9349 140.637 36.0932 139.037 34.4041C137.438 32.715 136.635 30.3902 136.635 27.4305Z" fill="#333333"/>
<path d="M169.115 27.5582C169.115 25.7743 168.775 24.4088 168.101 23.4665C167.426 22.5243 166.45 22.056 165.163 22.056C163.903 22.056 162.939 22.5243 162.281 23.4609C161.623 24.3974 161.294 25.7633 161.294 27.5582C161.294 29.236 161.64 30.535 162.331 31.4493C163.022 32.3635 163.998 32.8205 165.263 32.8205C166.462 32.8205 167.398 32.3522 168.084 31.4156C168.77 30.479 169.115 29.1914 169.115 27.5582ZM156.673 43.4511V18.5777H161.194V20.9803C161.88 19.9322 162.649 19.1741 163.49 18.6948C164.332 18.2152 165.33 17.9756 166.473 17.9756C168.658 17.9756 170.436 18.8396 171.797 20.5623C173.156 22.2903 173.837 24.5591 173.837 27.3632C173.837 30.2061 173.156 32.5139 171.797 34.2808C170.436 36.0481 168.68 36.9344 166.534 36.9344C165.402 36.9344 164.394 36.6948 163.507 36.2152C162.621 35.7359 161.88 35.039 161.294 34.1247V43.4511L156.673 43.4511Z" fill="#20281E"/>
<path d="M176.187 36.3323V12.2783H181.138V31.8895H192.877V36.3323H176.187Z" fill="#333333"/>
<path d="M193.989 16.5991V12.2734H198.744V16.5991H193.989ZM193.989 36.3327V18.578H198.744V36.3327H193.989Z" fill="#333333"/>
<path d="M202.526 36.3324V21.9113H199.996V18.5777H202.526V16.9276C202.526 15.2721 202.956 14.0567 203.809 13.2762C204.661 12.5014 206.011 12.1113 207.85 12.1113C208.185 12.1113 208.541 12.117 208.921 12.1336C209.294 12.1503 209.695 12.1839 210.119 12.2228V15.9967H208.876C208.173 15.9967 207.705 16.0915 207.482 16.2752C207.259 16.4593 207.148 16.8161 207.148 17.3346V18.5777H210.119V21.9113H207.181V36.3324L202.526 36.3324Z" fill="#333333"/>
<path d="M222.19 30.9424H226.929C226.449 32.8152 225.485 34.2813 224.03 35.3407C222.575 36.4054 220.802 36.9349 218.712 36.9349C216.142 36.9349 214.107 36.0709 212.602 34.3482C211.103 32.6202 210.35 30.2844 210.35 27.33C210.35 24.4258 211.092 22.1346 212.569 20.4565C214.052 18.7788 216.075 17.9424 218.645 17.9424C221.371 17.9424 223.473 18.7675 224.955 20.4176C226.432 22.0677 227.174 24.4144 227.174 27.4638C227.174 27.8039 227.174 28.0545 227.168 28.2276C227.163 28.3946 227.146 28.5564 227.124 28.7068H215.267C215.334 30.1004 215.674 31.1484 216.287 31.8563C216.9 32.5646 217.786 32.9157 218.941 32.9157C219.76 32.9157 220.429 32.754 220.947 32.4361C221.471 32.1129 221.884 31.6167 222.19 30.9424ZM215.267 25.5853H222.257C222.213 24.3869 221.895 23.4779 221.304 22.8482C220.708 22.2238 219.854 21.9116 218.745 21.9116C217.714 21.9116 216.9 22.2295 216.304 22.8592C215.713 23.4892 215.367 24.3978 215.267 25.5853Z" fill="#333333"/>
</svg>
