<svg width="18" height="21" viewBox="0 0 18 21" fill="none" xmlns="http://www.w3.org/2000/svg">
<g id="logout">
<path id="Union" fill-rule="evenodd" clip-rule="evenodd" d="M14.4697 11.7807C14.1768 12.0736 14.1768 12.5485 14.4697 12.8414C14.7626 13.1343 15.2374 13.1343 15.5303 12.8414L16.8232 11.5485C17.5066 10.8651 17.5066 9.75702 16.8232 9.0736L15.5303 7.78071C15.2374 7.48781 14.7626 7.48781 14.4697 7.78071C14.1768 8.0736 14.1768 8.54847 14.4697 8.84136L15.1893 9.56104L10 9.56104C9.58579 9.56104 9.25 9.89682 9.25 10.311C9.25 10.7252 9.58579 11.061 10 11.061L15.1893 11.061L14.4697 11.7807Z" fill="#FF0A4D"/>
<path id="Vector (Stroke)" fill-rule="evenodd" clip-rule="evenodd" d="M8 2.82715L11 2.82715C12.5188 2.82715 13.75 4.05837 13.75 5.57715C13.75 5.99136 13.4142 6.32715 13 6.32715C12.5858 6.32715 12.25 5.99136 12.25 5.57715C12.25 4.88679 11.6904 4.32715 11 4.32715H8V2.82715ZM13 14.8271C13.4142 14.8271 13.75 15.1629 13.75 15.5771C13.75 17.0959 12.5188 18.3271 11 18.3271H8V16.8271H11C11.6904 16.8271 12.25 16.2675 12.25 15.5771C12.25 15.1629 12.5858 14.8271 13 14.8271Z" fill="#FF0A4D"/>
<path id="Vector" opacity="0.4" d="M0 4.3078C0 3.58615 0.381946 2.91224 1.01783 2.51194L4.44642 0.677159C5.9654 -0.27907 8.00002 0.749151 8.00002 2.47302V18.1491C8.00002 19.8729 5.9654 20.9011 4.44642 19.9449L1.01785 18.1069C0.381963 17.7066 1.71661e-05 17.0327 1.71661e-05 16.311L0 4.3078Z" fill="#FF0A4D"/>
</g>
</svg>
