<svg width="20" height="20" viewBox="0 0 20 20" fill="none" xmlns="http://www.w3.org/2000/svg">
<g id="maximize">
<path id="Ellipse 1219" opacity="0.4" d="M16.3096 11.1646C16.3096 15.5828 12.7278 19.1646 8.30957 19.1646C3.89129 19.1646 0.30957 15.5828 0.30957 11.1646C0.30957 6.74627 3.89129 3.16455 8.30957 3.16455C12.7278 3.16455 16.3096 6.74627 16.3096 11.1646Z" fill="#5C7E64"/>
<path id="Vector 466 (Stroke)" fill-rule="evenodd" clip-rule="evenodd" d="M13.3096 1.91455C12.8954 1.91455 12.5596 1.57876 12.5596 1.16455C12.5596 0.750337 12.8954 0.414551 13.3096 0.414551H18.3096C18.7238 0.414551 19.0596 0.750337 19.0596 1.16455V6.16455C19.0596 6.57876 18.7238 6.91455 18.3096 6.91455C17.8954 6.91455 17.5596 6.57876 17.5596 6.16455V2.97521L7.8399 12.6949C7.54701 12.9878 7.07213 12.9878 6.77924 12.6949C6.48635 12.402 6.48635 11.9271 6.77924 11.6342L16.4989 1.91455H13.3096Z" fill="#5C7E64"/>
</g>
</svg>
