<svg width="16" height="19" viewBox="0 0 16 19" fill="none" xmlns="http://www.w3.org/2000/svg">
<g id="notification">
<path id="Ellipse 248" d="M8 18.2888C9.38503 18.2888 10.5633 17.454 11 16.2888H5C5.43668 17.454 6.61497 18.2888 8 18.2888Z" fill="#2D2D2D" fill-opacity="0.4"/>
<path id="Subtract" opacity="0.4" fill-rule="evenodd" clip-rule="evenodd" d="M14.1412 7.12368C13.7795 7.23113 13.3965 7.28882 13 7.28882C10.7909 7.28882 9 5.49796 9 3.28882C9 2.97873 9.03528 2.67689 9.10206 2.38709C8.74353 2.32245 8.37522 2.28882 8 2.28882C4.77095 2.28882 2.05382 4.77967 1.67964 8.08285L1.33476 11.1273C1.24906 11.8838 0.942464 12.5957 0.455492 13.1689C-0.577914 14.3852 0.260813 16.2888 1.83014 16.2888H14.1699C15.7392 16.2888 16.5779 14.3852 15.5445 13.1689C15.0575 12.5957 14.7509 11.8838 14.6652 11.1273L14.3204 8.08285C14.2832 7.75455 14.2228 7.43428 14.1412 7.12368Z" fill="#2D2D2D" fill-opacity="0.4"/>
<circle id="Ellipse 247" cx="13" cy="3.28882" r="3" fill="#2D2D2D" fill-opacity="0.4"/>
</g>
</svg>
