<svg width="22" height="22" viewBox="0 0 22 22" fill="none" xmlns="http://www.w3.org/2000/svg">
<g id="interactive">
<path id="Vector 2461" d="M13.6699 20.0393L11.0573 12.2014C10.7758 11.357 11.5792 10.5537 12.4235 10.8351L20.2614 13.4478C21.2462 13.776 21.2462 15.1689 20.2614 15.4971L17.3672 16.4619C17.0447 16.5694 16.7916 16.8225 16.6841 17.145L15.7193 20.0393C15.3911 21.024 13.9982 21.024 13.6699 20.0393Z" fill="#2D2D2D" fill-opacity="0.4"/>
<path id="Vector (Stroke)" opacity="0.4" fill-rule="evenodd" clip-rule="evenodd" d="M11 6.52783C8.65279 6.52783 6.75 8.43062 6.75 10.7778C6.75 12.5613 7.84882 14.09 9.40922 14.7203C9.79328 14.8755 9.97885 15.3126 9.82371 15.6966C9.66857 16.0807 9.23145 16.2663 8.84739 16.1111C6.7395 15.2596 5.25 13.1936 5.25 10.7778C5.25 7.60219 7.82436 5.02783 11 5.02783C13.4157 5.02783 15.4818 6.51733 16.3333 8.62522C16.4884 9.00929 16.3029 9.4464 15.9188 9.60154C15.5347 9.75669 15.0976 9.57111 14.9425 9.18705C14.3122 7.62665 12.7835 6.52783 11 6.52783Z" fill="#2D2D2D" fill-opacity="0.4"/>
<path id="Vector (Stroke)_2" opacity="0.4" fill-rule="evenodd" clip-rule="evenodd" d="M11 1.52783C5.89137 1.52783 1.75 5.6692 1.75 10.7778C1.75 15.8604 5.84923 19.9856 10.9218 20.0275C11.336 20.0309 11.669 20.3695 11.6655 20.7837C11.6621 21.1979 11.3236 21.5309 10.9094 21.5275C5.01395 21.4787 0.25 16.6846 0.25 10.7778C0.25 4.84077 5.06294 0.027832 11 0.027832C16.9068 0.027832 21.7009 4.79178 21.7496 10.6872C21.7531 11.1014 21.4201 11.4399 21.0059 11.4434C20.5917 11.4468 20.2531 11.1138 20.2497 10.6996C20.2077 5.62706 16.0825 1.52783 11 1.52783Z" fill="#2D2D2D" fill-opacity="0.4"/>
</g>
</svg>
