<svg width="13" height="15" viewBox="0 0 13 15" fill="none" xmlns="http://www.w3.org/2000/svg">
<path fill-rule="evenodd" clip-rule="evenodd" d="M3.1416 10.8813V14.1244C3.1416 14.644 3.66639 14.9993 4.14884 14.8063L6.54115 13.8494C6.71625 13.7794 6.91159 13.7794 7.08669 13.8494L9.479 14.8063C9.96144 14.9993 10.4862 14.644 10.4862 14.1244V10.8813C10.3259 10.9523 10.1515 10.9976 9.96834 11.0122L9.28027 11.0671C8.94591 11.0938 8.62848 11.2253 8.37318 11.4429L7.84781 11.8906C7.25205 12.3983 6.37579 12.3983 5.78002 11.8906L5.25466 11.4429C4.99936 11.2253 4.68193 11.0938 4.34756 11.0671L3.6595 11.0122C3.4763 10.9976 3.30195 10.9523 3.1416 10.8813Z" fill="#2D2D2D"/>
<path opacity="0.4" d="M5.78029 0.900314C6.37606 0.392603 7.25231 0.392604 7.84808 0.900315L8.37344 1.34803C8.62874 1.56559 8.94617 1.69707 9.28054 1.72376L9.96861 1.77867C10.7489 1.84093 11.3685 2.46054 11.4308 3.24082L11.4857 3.92888C11.5123 4.26325 11.6438 4.58068 11.8614 4.83598L12.3091 5.36134C12.8168 5.95711 12.8168 6.83337 12.3091 7.42913L11.8614 7.9545C11.6438 8.2098 11.5123 8.52723 11.4857 8.86159L11.4308 9.54966C11.3685 10.3299 10.7489 10.9495 9.9686 11.0118L9.28054 11.0667C8.94617 11.0934 8.62874 11.2249 8.37344 11.4424L7.84808 11.8902C7.25231 12.3979 6.37606 12.3979 5.78029 11.8902L5.25492 11.4424C4.99962 11.2249 4.68219 11.0934 4.34783 11.0667L3.65976 11.0118C2.87948 10.9495 2.25988 10.3299 2.19761 9.54966L2.1427 8.86159C2.11602 8.52723 1.98454 8.2098 1.76697 7.9545L1.31926 7.42913C0.811549 6.83336 0.811549 5.95711 1.31926 5.36134L1.76697 4.83598C1.98454 4.58068 2.11602 4.26325 2.1427 3.92888L2.19761 3.24081C2.25988 2.46054 2.87948 1.84093 3.65976 1.77867L4.34783 1.72376C4.68219 1.69707 4.99962 1.56559 5.25492 1.34803L5.78029 0.900314Z" fill="#2D2D2D"/>
</svg>
