<svg width="16" height="20" viewBox="0 0 16 20" fill="none" xmlns="http://www.w3.org/2000/svg">
<g id="bookmark">
<path id="Vector 2929" opacity="0.4" d="M0 18.2915V2.80005C0 1.69548 0.895431 0.800049 2 0.800049H14C15.1046 0.800049 16 1.69548 16 2.80005L16 18.2915C16 19.5409 14.562 20.2427 13.5771 19.474L9.23051 15.5167C8.50727 14.9523 7.49273 14.9523 6.76948 15.5167L2.42289 19.474C1.43797 20.2427 0 19.5409 0 18.2915Z" fill="#2D2D2D" fill-opacity="0.4"/>
<path id="Vector" d="M2 0.800049H14C15.1046 0.800049 16 1.69548 16 2.80005V5.80005H0V2.80005C0 1.69548 0.895431 0.800049 2 0.800049Z" fill="#2D2D2D" fill-opacity="0.4"/>
</g>
</svg>
