<svg width="223" height="47" viewBox="0 0 223 47" fill="none" xmlns="http://www.w3.org/2000/svg">
<g clip-path="url(#clip0_301_3818)">
<path d="M61.8949 37.6712C63.979 37.6572 65.9092 37.2951 67.6863 36.5842C69.4634 35.8664 71.0455 34.8698 72.4255 33.5874C73.7982 32.305 74.9343 30.8136 75.8191 29.0992L71.7214 26.9248C71.1359 28.1585 70.3694 29.2459 69.4355 30.1866C68.4948 31.1273 67.3866 31.859 66.1182 32.3889C64.8498 32.9184 63.4283 33.1902 61.8534 33.1974C60.2645 33.1902 58.8007 32.8905 57.4559 32.319C56.1176 31.7407 54.9471 30.9391 53.9432 29.9148C52.9469 28.8902 52.1665 27.7057 51.6158 26.3534C51.0651 25.0014 50.7794 23.5448 50.7726 21.9911C50.7794 20.4089 51.0651 18.9455 51.6158 17.5796C52.1733 16.2205 52.9469 15.022 53.9504 13.9906C54.9539 12.9659 56.1248 12.1575 57.4767 11.5792C58.8218 11.0006 60.2992 10.708 61.8949 10.7009C63.3308 10.708 64.6548 10.945 65.8604 11.4118C67.0661 11.8857 68.1395 12.5547 69.0802 13.4119C70.0141 14.2763 70.8014 15.2937 71.4288 16.4714L75.4011 14.0042C74.4883 12.4572 73.3454 11.1121 71.9723 9.96233C70.6064 8.81222 69.0662 7.92025 67.359 7.27924C65.6514 6.64504 63.8255 6.31735 61.895 6.31055C60.139 6.31735 58.4802 6.57549 56.9052 7.08422C55.3371 7.59974 53.9016 8.32466 52.5984 9.26538C51.2953 10.2061 50.1731 11.3282 49.2184 12.6246C48.2637 13.9206 47.5248 15.3565 47.0093 16.9382C46.4866 18.5203 46.2216 20.1999 46.2148 21.991C46.2216 23.7262 46.4726 25.3779 46.9813 26.946C47.4829 28.5069 48.201 29.9424 49.1349 31.2528C50.0684 32.5559 51.1766 33.6849 52.473 34.6468C53.769 35.6015 55.2116 36.3472 56.7937 36.8699C58.3827 37.3994 60.083 37.6644 61.8949 37.6712Z" fill="#2D2D2D"/>
<path d="M78.5547 37.2527H83.0708V24.792C83.0776 23.7745 83.2311 22.8614 83.5376 22.0461C83.8373 21.2377 84.2625 20.5407 84.8132 19.9693C85.3567 19.391 85.9909 18.9518 86.7226 18.6453C87.4472 18.3388 88.242 18.1853 89.092 18.1853C90.3744 18.1921 91.4406 18.4503 92.2978 18.9658C93.155 19.4817 93.796 20.2063 94.2212 21.1542C94.6464 22.0949 94.8626 23.2098 94.8626 24.4994V37.2527H99.4619V24.1649C99.4551 22.0949 99.0787 20.3177 98.3262 18.8335C97.5805 17.3489 96.5143 16.2132 95.1343 15.4187C93.7472 14.6242 92.0956 14.2198 90.1794 14.213C89.1615 14.2198 88.2068 14.3593 87.3221 14.645C86.4369 14.9308 85.6353 15.3348 84.9107 15.8507C84.1858 16.3734 83.5588 16.9797 83.0289 17.6834V4.30273H78.5547V37.2527Z" fill="#2D2D2D"/>
<path d="M114.115 37.7125C115.759 37.6985 117.286 37.3988 118.701 36.7925C120.122 36.1931 121.363 35.3571 122.436 34.2837C123.509 33.2103 124.345 31.9698 124.945 30.5484C125.551 29.1337 125.858 27.6003 125.865 25.9627C125.858 24.3178 125.551 22.7916 124.945 21.377C124.345 19.9551 123.509 18.7147 122.436 17.6417C121.363 16.5683 120.122 15.7319 118.701 15.1328C117.286 14.5262 115.759 14.2197 114.115 14.2129C112.477 14.2197 110.944 14.5262 109.529 15.1328C108.107 15.7319 106.867 16.5683 105.794 17.6417C104.721 18.7147 103.884 19.9551 103.285 21.377C102.679 22.7917 102.379 24.3178 102.365 25.9627C102.379 27.6003 102.679 29.1337 103.285 30.5484C103.884 31.9699 104.721 33.2103 105.794 34.2837C106.867 35.3571 108.107 36.1931 109.529 36.7925C110.944 37.3988 112.477 37.6985 114.115 37.7125ZM114.115 33.4892C113.084 33.4824 112.129 33.287 111.258 32.9038C110.379 32.5133 109.613 31.977 108.958 31.2941C108.31 30.6111 107.801 29.8095 107.432 28.9035C107.069 27.9976 106.888 27.0149 106.881 25.9627C106.888 24.9104 107.069 23.9278 107.432 23.0218C107.801 22.1155 108.31 21.3142 108.958 20.6313C109.613 19.9415 110.379 19.4116 111.258 19.0216C112.129 18.6379 113.084 18.4429 114.115 18.4361C115.132 18.4429 116.087 18.6379 116.965 19.0216C117.844 19.4116 118.61 19.9415 119.272 20.6313C119.934 21.3142 120.457 22.1155 120.826 23.0218C121.196 23.9278 121.384 24.9104 121.391 25.9627C121.384 27.0149 121.196 27.9976 120.833 28.9035C120.464 29.8095 119.948 30.6111 119.293 31.2941C118.631 31.977 117.864 32.5133 116.979 32.9038C116.101 33.287 115.146 33.4824 114.115 33.4892Z" fill="#2D2D2D"/>
<path d="M141.019 37.7125C142.197 37.7057 143.34 37.5314 144.441 37.169C145.549 36.8065 146.574 36.2906 147.521 35.6148C148.476 34.9319 149.306 34.1095 150.023 33.1548C150.734 32.1929 151.298 31.1059 151.696 29.9002C152.1 28.6874 152.302 27.3774 152.309 25.9627C152.302 24.5408 152.1 23.2169 151.71 22.0112C151.312 20.7987 150.762 19.7182 150.058 18.7566C149.347 17.7947 148.525 16.9795 147.577 16.3033C146.629 15.6276 145.605 15.1117 144.49 14.7492C143.382 14.3939 142.225 14.2129 141.019 14.2129C139.981 14.2129 138.977 14.3731 138.009 14.6797C137.04 14.9862 136.148 15.4254 135.333 15.99C134.517 16.5543 133.82 17.2305 133.242 18.0177V14.6729H128.851V46.2845H133.242V34.2418C133.806 34.9947 134.489 35.6289 135.297 36.1444C136.099 36.6603 136.991 37.0504 137.96 37.3153C138.936 37.5803 139.953 37.7125 141.019 37.7125ZM140.392 33.5728C139.319 33.5659 138.336 33.3637 137.43 32.9733C136.524 32.5761 135.743 32.0326 135.068 31.3288C134.399 30.6319 133.883 29.8235 133.514 28.8967C133.144 27.9768 132.956 26.9801 132.949 25.9207C132.956 24.8685 133.144 23.8858 133.514 22.9659C133.883 22.0531 134.399 21.2447 135.068 20.5477C135.743 19.8508 136.524 19.3073 137.43 18.9101C138.336 18.5196 139.319 18.3174 140.392 18.3106C141.444 18.3174 142.42 18.5128 143.312 18.8961C144.211 19.2861 144.992 19.8228 145.661 20.513C146.33 21.2095 146.852 22.0112 147.229 22.9311C147.598 23.851 147.786 24.8477 147.793 25.9207C147.786 26.9941 147.598 27.9908 147.229 28.9175C146.852 29.8374 146.33 30.6527 145.661 31.3496C144.992 32.0398 144.211 32.5833 143.312 32.9805C142.42 33.3706 141.444 33.5659 140.392 33.5728Z" fill="#2D2D2D"/>
<path d="M155.714 37.2532H175.116V32.821H160.272V6.72852H155.714V37.2532Z" fill="#2D2D2D"/>
<path d="M178.563 37.2532H183.12V14.6735H178.563V37.2532ZM177.643 7.89947C177.65 8.51969 177.782 9.07036 178.047 9.55112C178.312 10.0319 178.688 10.4151 179.162 10.694C179.636 10.973 180.187 11.1121 180.821 11.1192C181.455 11.1121 182.012 10.973 182.493 10.694C182.974 10.4151 183.35 10.0319 183.622 9.55112C183.894 9.07036 184.033 8.51969 184.04 7.89947C184.033 7.27925 183.894 6.72857 183.622 6.24781C183.35 5.76706 182.974 5.38344 182.493 5.10489C182.012 4.82596 181.455 4.68687 180.821 4.67969C180.2 4.68687 179.657 4.82596 179.176 5.10489C178.702 5.38344 178.333 5.76706 178.061 6.24781C177.789 6.72857 177.65 7.27925 177.643 7.89947Z" fill="#2D2D2D"/>
<path d="M185.438 18.729H189.368V37.2529H193.8V18.729H199.488V14.6732H193.8V13.4188C193.794 12.3662 193.842 11.5162 193.961 10.868C194.072 10.213 194.302 9.7111 194.637 9.36981C194.971 9.02133 195.473 8.78436 196.128 8.65888C196.79 8.5334 197.654 8.47746 198.735 8.48464H199.488V4.30296H198.4C196.665 4.29616 195.208 4.44243 194.045 4.73534C192.874 5.03506 191.954 5.5298 191.264 6.21956C190.581 6.9097 190.093 7.84325 189.8 9.01414C189.508 10.185 189.361 11.6345 189.368 13.3769V14.6732H185.438V18.729Z" fill="#2D2D2D"/>
<path d="M211.548 37.7125C213.179 37.7057 214.635 37.4755 215.918 37.0295C217.2 36.5764 218.336 35.9493 219.318 35.1341C220.301 34.3257 221.158 33.3706 221.876 32.2768L218.155 30.0605C217.709 30.7922 217.179 31.4264 216.552 31.9699C215.932 32.5134 215.207 32.9386 214.377 33.2383C213.548 33.538 212.607 33.6914 211.548 33.6983C210.161 33.6914 208.941 33.4333 207.875 32.9318C206.809 32.4298 205.938 31.7329 205.255 30.8269C204.579 29.921 204.126 28.8548 203.896 27.6351H222.88V25.7537C222.873 24.0741 222.58 22.5339 222.009 21.126C221.43 19.7253 220.622 18.5057 219.583 17.4742C218.538 16.4428 217.318 15.6416 215.91 15.0769C214.503 14.5054 212.97 14.2197 211.297 14.2129C209.624 14.2197 208.077 14.5262 206.655 15.1256C205.234 15.7251 203.994 16.5615 202.927 17.6345C201.868 18.7079 201.039 19.9623 200.446 21.391C199.854 22.8196 199.554 24.3738 199.547 26.0462C199.554 27.6979 199.84 29.224 200.411 30.6387C200.983 32.0466 201.791 33.2802 202.851 34.3393C203.91 35.3987 205.171 36.2211 206.642 36.8133C208.105 37.406 209.743 37.7057 211.548 37.7125ZM211.297 18.1852C212.544 18.1852 213.653 18.4082 214.621 18.8474C215.597 19.2862 216.398 19.9204 217.033 20.7568C217.667 21.586 218.092 22.5967 218.322 23.7883H204.063C204.363 22.6942 204.851 21.7255 205.534 20.8823C206.21 20.0459 207.039 19.3909 208.021 18.9101C208.997 18.4362 210.091 18.192 211.297 18.1852Z" fill="#2D2D2D"/>
<path fill-rule="evenodd" clip-rule="evenodd" d="M40.0524 9.12377C39.7508 9.15401 39.4189 9.15401 39.1173 9.18387C38.2424 8.39961 37.1259 7.88673 35.9493 7.9472C33.9276 8.03754 31.9668 9.75722 31.4539 12.3821C30.3677 11.4467 28.9799 11.1451 27.8936 11.5975C26.3247 12.2615 25.3594 14.5243 26.3247 16.6964C24.3034 14.7655 21.4374 14.1623 18.9936 15.0973C15.4938 16.4251 14.7091 19.9245 14.5885 21.4632C14.4377 23.0925 14.7696 25.5969 16.7308 27.4674C19.0537 29.6999 22.1612 29.4886 23.6095 29.2475C25.0578 28.9758 26.4155 28.3121 27.5618 27.3766C27.411 28.2516 27.5316 29.2774 28.1956 29.9713C29.2214 31.0273 31.4237 31.118 33.1736 29.5793C32.7511 30.8765 32.9321 32.2946 33.747 33.1695C34.9836 34.4666 37.5783 34.5271 39.3887 32.7167C39.962 32.3849 40.5652 32.053 41.1386 31.7212C39.5697 34.7686 37.3674 37.4234 34.6216 39.4749C32.7208 40.893 30.6391 42.0095 28.4972 42.7336C22.5838 44.6944 16.1877 43.7291 10.5759 40.9837C7.04615 38.8415 4.17975 35.7642 2.3395 32.0833C0.287973 28.0105 -0.375712 23.4244 0.197266 19.0798C0.921423 13.8905 3.99871 5.53324 12.6576 1.67172C16.5498 -0.0479643 21.3165 -0.530611 26.536 0.645956C31.8761 1.85276 36.5828 4.8998 40.0524 9.12377Z" fill="#C1CF65"/>
</g>
<defs>
<clipPath id="clip0_301_3818">
<rect width="222.879" height="46.2852" fill="white"/>
</clipPath>
</defs>
</svg>
